<?xml version="1.0" encoding="UTF-8" standalone="no"?>
<svg
   xmlns:dc="http://purl.org/dc/elements/1.1/"
   xmlns:cc="http://creativecommons.org/ns#"
   xmlns:rdf="http://www.w3.org/1999/02/22-rdf-syntax-ns#"
   xmlns:svg="http://www.w3.org/2000/svg"
   xmlns="http://www.w3.org/2000/svg"
   xmlns:sodipodi="http://sodipodi.sourceforge.net/DTD/sodipodi-0.dtd"
   xmlns:inkscape="http://www.inkscape.org/namespaces/inkscape"
   width="50"
   height="47.309608"
   viewBox="0 0 50 47.309608"
   class="feather feather-youtube"
   version="1.1"
   id="svg6"
   sodipodi:docname="youtube.svg"
   inkscape:version="0.92.4 (5da689c313, 2019-01-14)"
   style="fill:none;stroke:currentColor;stroke-width:2;stroke-linecap:round;stroke-linejoin:round">
  <metadata
     id="metadata12">
    <rdf:RDF>
      <cc:Work
         rdf:about="">
        <dc:format>image/svg+xml</dc:format>
        <dc:type
           rdf:resource="http://purl.org/dc/dcmitype/StillImage" />
        <dc:title></dc:title>
      </cc:Work>
    </rdf:RDF>
  </metadata>
  <defs
     id="defs10" />
  <sodipodi:namedview
     pagecolor="#7b7dff"
     bordercolor="#666666"
     borderopacity="1"
     objecttolerance="10"
     gridtolerance="10"
     guidetolerance="10"
     inkscape:pageopacity="0"
     inkscape:pageshadow="2"
     inkscape:window-width="640"
     inkscape:window-height="480"
     id="namedview8"
     showgrid="false"
     inkscape:zoom="3.4766083"
     inkscape:cx="17.606721"
     inkscape:cy="15.807449"
     inkscape:window-x="1059"
     inkscape:window-y="436"
     inkscape:window-maximized="0"
     inkscape:current-layer="svg6"
     fit-margin-top="0"
     fit-margin-left="0"
     fit-margin-right="0"
     fit-margin-bottom="0" />
  <g
     id="g856"
     transform="translate(-1.4016935,88.841244)">
    <g
       transform="matrix(1.2679247,0,0,1.2679247,11.186596,-80.059197)"
       id="g846"
       style="fill:#ffffff;stroke:currentColor;stroke-width:2.00011873;stroke-linecap:round;stroke-linejoin:round;stroke-miterlimit:4;stroke-dasharray:none">
      <path
         style="fill:none;stroke:#ffffff;stroke-width:2.00011873;stroke-miterlimit:4;stroke-dasharray:none;stroke-opacity:1"
         inkscape:connector-curvature="0"
         d="m 22.54,6.42 a 2.78,2.78 0 0 0 -1.94,-2 C 18.88,4 12,4 12,4 12,4 5.12,4 3.4,4.46 A 2.78,2.78 0 0 0 1.46,6.46 29,29 0 0 0 1,11.75 29,29 0 0 0 1.46,17.08 2.78,2.78 0 0 0 3.4,19 c 1.72,0.46 8.6,0.46 8.6,0.46 0,0 6.88,0 8.6,-0.46 A 2.78,2.78 0 0 0 22.54,17 29,29 0 0 0 23,11.75 29,29 0 0 0 22.54,6.42 Z"
         id="path832" />
      <polygon
         style="fill:#ffffff;stroke:none;stroke-width:2.00011873;stroke-miterlimit:4;stroke-dasharray:none"
         points="9.75,15.02 15.5,11.75 9.75,8.48 "
         id="polygon834" />
    </g>
    <ellipse
       style="opacity:1;fill:none;fill-opacity:1;fill-rule:nonzero;stroke:#ffffff;stroke-width:2.97647452;stroke-linecap:round;stroke-miterlimit:4;stroke-dasharray:none;stroke-dashoffset:29.09999657;stroke-opacity:1;paint-order:markers fill stroke"
       id="ellipse850"
       cx="26.401693"
       cy="-65.18644"
       rx="23.511763"
       ry="22.166567" />
  </g>
</svg>
