<?xml version="1.0" encoding="iso-8859-1"?>
<!-- Generator: Adobe Illustrator 18.1.1, SVG Export Plug-In . SVG Version: 6.00 Build 0)  -->
<svg xmlns="http://www.w3.org/2000/svg" xmlns:xlink="http://www.w3.org/1999/xlink" version="1.1" id="Capa_1" x="0px" y="0px" viewBox="0 0 18.32 18.32" style="enable-background:new 0 0 18.32 18.32;" xml:space="preserve" width="512px" height="512px">
<g>
	<g>
		<path d="M17.168,16.266H16.74v-2.043c-0.071,0.042-0.152,0.067-0.24,0.067c-0.905,0-1.628-0.27-2.146-0.803    c-0.107-0.11-0.199-0.225-0.279-0.344c-0.063,0.099-0.137,0.194-0.221,0.287c-0.517,0.57-1.28,0.859-2.27,0.859    c-0.905,0-1.628-0.27-2.146-0.803c-0.106-0.11-0.199-0.225-0.278-0.344c-0.064,0.099-0.138,0.194-0.222,0.287    c-0.516,0.57-1.28,0.859-2.27,0.859c-0.905,0-1.627-0.27-2.146-0.803c-0.106-0.11-0.199-0.225-0.278-0.344    c-0.064,0.099-0.138,0.194-0.221,0.287c-0.517,0.57-1.28,0.859-2.27,0.859c-0.062,0-0.121-0.012-0.175-0.034v2.01H1.152    c-0.378,0-0.685,0.307-0.685,0.685v0.686c0,0.379,0.307,0.686,0.685,0.686h16.016c0.378,0,0.686-0.307,0.686-0.686v-0.686    C17.853,16.573,17.546,16.266,17.168,16.266z" fill="#ffffff"/>
		<path d="M3.321,12.793c0.366-0.403,0.417-0.948,0.419-1.186c-0.007-0.104-0.005-0.168-0.005-0.18    c0.007-0.25,0.208-0.452,0.458-0.461c0.252-0.008,0.465,0.178,0.489,0.428c0.001,0.01,0.007,0.075,0.007,0.178    c0.019,0.25,0.108,0.838,0.521,1.258c0.333,0.34,0.824,0.511,1.459,0.511c0.71,0,1.237-0.184,1.565-0.548    c0.366-0.403,0.417-0.948,0.419-1.186c-0.007-0.104-0.006-0.168-0.006-0.18c0.007-0.25,0.208-0.452,0.458-0.461    c0.25-0.008,0.465,0.178,0.489,0.428c0.001,0.01,0.007,0.075,0.007,0.178c0.02,0.25,0.109,0.838,0.521,1.258    c0.333,0.34,0.824,0.511,1.46,0.511c0.71,0,1.236-0.184,1.565-0.548c0.366-0.403,0.416-0.948,0.419-1.186    c-0.008-0.104-0.006-0.168-0.005-0.18c0.006-0.25,0.206-0.452,0.458-0.461c0.247-0.008,0.464,0.178,0.489,0.428    c0.001,0.01,0.007,0.075,0.007,0.178c0.02,0.25,0.108,0.838,0.521,1.258c0.332,0.34,0.824,0.511,1.46,0.511    c0.088,0,0.169,0.026,0.24,0.067v-2.195c0-0.379-0.307-0.686-0.686-0.686h-0.448V8.791c-0.06,0.035-0.129,0.057-0.203,0.057    c-0.771,0-1.385-0.23-1.826-0.684c-0.09-0.092-0.169-0.19-0.236-0.291c-0.055,0.083-0.117,0.165-0.188,0.243    c-0.44,0.486-1.09,0.732-1.931,0.732c-0.77,0-1.385-0.23-1.826-0.684c-0.09-0.092-0.168-0.19-0.236-0.291    C9.101,7.956,9.038,8.038,8.968,8.116C8.529,8.602,7.879,8.848,7.037,8.848c-0.77,0-1.384-0.23-1.825-0.684    c-0.09-0.092-0.169-0.19-0.237-0.291C4.92,7.956,4.858,8.038,4.787,8.116C4.348,8.602,3.699,8.848,2.856,8.848    c-0.053,0-0.103-0.01-0.148-0.029v1.708H2.265c-0.378,0-0.685,0.307-0.685,0.686v2.162c0.054-0.021,0.113-0.034,0.175-0.034    C2.466,13.341,2.992,13.157,3.321,12.793z" fill="#ffffff"/>
		<path d="M4.193,7.575c0.312-0.344,0.354-0.808,0.356-1.01C4.543,6.477,4.545,6.422,4.545,6.413    C4.551,6.2,4.722,6.029,4.935,6.021c0.214-0.007,0.396,0.151,0.417,0.364c0,0.009,0.006,0.064,0.006,0.152    c0.017,0.211,0.092,0.712,0.443,1.07c0.283,0.289,0.701,0.434,1.241,0.434c0.604,0,1.052-0.157,1.332-0.465    c0.312-0.344,0.354-0.808,0.356-1.01C8.724,6.478,8.725,6.423,8.726,6.414c0.006-0.213,0.176-0.384,0.39-0.392    c0.212-0.007,0.395,0.151,0.416,0.364C9.533,6.395,9.538,6.45,9.538,6.538C9.554,6.749,9.63,7.25,9.982,7.608    c0.282,0.289,0.7,0.434,1.241,0.434c0.604,0,1.051-0.157,1.331-0.465c0.312-0.344,0.354-0.808,0.356-1.01    c-0.006-0.088-0.005-0.143-0.004-0.152c0.005-0.213,0.176-0.384,0.39-0.392c0.21-0.007,0.395,0.151,0.416,0.364    c0.001,0.009,0.006,0.064,0.006,0.152c0.017,0.211,0.093,0.712,0.443,1.07c0.283,0.289,0.701,0.434,1.242,0.434    c0.074,0,0.144,0.022,0.203,0.057V6.23c0-0.322-0.26-0.583-0.582-0.583h-4.45h-0.87c0.693-0.633,2.441-2.332,2.636-3.519    c0.1-0.607,0.008-1.101-0.271-1.469c-0.279-0.366-0.732-0.585-1.348-0.651C10.215-0.043,9.566,0.16,9.16,0.603    C8.754,0.16,8.108-0.045,7.599,0.008C6.984,0.074,6.531,0.293,6.252,0.659C5.972,1.026,5.881,1.52,5.979,2.128    c0.195,1.188,1.957,2.885,2.656,3.519h-0.89h-4.45c-0.322,0-0.583,0.261-0.583,0.583v1.839C2.758,8.05,2.808,8.04,2.86,8.04    C3.466,8.04,3.914,7.883,4.193,7.575z M6.804,1.993c-0.061-0.372-0.022-0.65,0.113-0.828C7.053,0.987,7.305,0.88,7.688,0.839    c0.024-0.003,0.048-0.004,0.074-0.004c0.33,0,0.889,0.204,0.987,0.75C8.784,1.785,8.957,1.93,9.16,1.93    c0.202,0,0.375-0.145,0.411-0.344c0.105-0.589,0.735-0.782,1.061-0.746c0.384,0.041,0.636,0.147,0.771,0.326    c0.135,0.177,0.173,0.456,0.111,0.828c-0.122,0.755-1.405,2.149-2.345,3.011C8.223,4.142,6.928,2.747,6.804,1.993z" fill="#ffffff"/>
	</g>
</g>
<g>
</g>
<g>
</g>
<g>
</g>
<g>
</g>
<g>
</g>
<g>
</g>
<g>
</g>
<g>
</g>
<g>
</g>
<g>
</g>
<g>
</g>
<g>
</g>
<g>
</g>
<g>
</g>
<g>
</g>
</svg>
