<?xml version="1.0" encoding="UTF-8" standalone="no"?>
<!-- Created with Inkscape (http://www.inkscape.org/) -->

<svg
   xmlns:dc="http://purl.org/dc/elements/1.1/"
   xmlns:cc="http://creativecommons.org/ns#"
   xmlns:rdf="http://www.w3.org/1999/02/22-rdf-syntax-ns#"
   xmlns:svg="http://www.w3.org/2000/svg"
   xmlns="http://www.w3.org/2000/svg"
   xmlns:sodipodi="http://sodipodi.sourceforge.net/DTD/sodipodi-0.dtd"
   xmlns:inkscape="http://www.inkscape.org/namespaces/inkscape"
   width="290.6611mm"
   height="204.6111mm"
   viewBox="0 0 1029.9015 724.99995"
   id="svg5294"
   version="1.1"
   inkscape:version="0.92.4 (5da689c313, 2019-01-14)"
   sodipodi:docname="djb_logo.svg">
  <defs
     id="defs5296" />
  <sodipodi:namedview
     id="base"
     pagecolor="#000000"
     bordercolor="#ffffff"
     borderopacity="1"
     inkscape:pageopacity="0"
     inkscape:pageshadow="2"
     inkscape:zoom="0.48020887"
     inkscape:cx="271.05819"
     inkscape:cy="286.95283"
     inkscape:document-units="px"
     inkscape:current-layer="layer1"
     showgrid="false"
     inkscape:window-width="1920"
     inkscape:window-height="1013"
     inkscape:window-x="-9"
     inkscape:window-y="-9"
     inkscape:window-maximized="1"
     inkscape:showpageshadow="false"
     fit-margin-top="0"
     fit-margin-left="0"
     fit-margin-right="0"
     fit-margin-bottom="0" />
  <metadata
     id="metadata5299">
    <rdf:RDF>
      <cc:Work
         rdf:about="">
        <dc:format>image/svg+xml</dc:format>
        <dc:type
           rdf:resource="http://purl.org/dc/dcmitype/StillImage" />
        <dc:title></dc:title>
      </cc:Work>
    </rdf:RDF>
  </metadata>
  <g
     inkscape:label="Layer 1"
     inkscape:groupmode="layer"
     id="layer1"
     transform="translate(-11.230364,-317.81496)">
    <flowRoot
       xml:space="preserve"
       id="flowRoot8819"
       style="font-style:normal;font-weight:normal;line-height:0.01%;font-family:sans-serif;letter-spacing:0px;word-spacing:0px;fill:#000000;fill-opacity:1;stroke:none;stroke-width:1px;stroke-linecap:butt;stroke-linejoin:miter;stroke-opacity:1"><flowRegion
         id="flowRegion8821"><rect
           id="rect8823"
           width="774"
           height="230"
           x="168"
           y="994.09448" /></flowRegion><flowPara
         id="flowPara8825"
         style="font-size:40px;line-height:1.25"> </flowPara></flowRoot>    <ellipse
       style="opacity:1;fill:#000000;fill-opacity:1;stroke:#ff8c00;stroke-width:8.8569479;stroke-miterlimit:4;stroke-dasharray:none;stroke-opacity:1"
       id="path5852"
       cx="526.18109"
       cy="680.31494"
       rx="358.07153"
       ry="358.0715" />
    <circle
       style="opacity:1;fill:#000000;fill-opacity:1;stroke:#ffffff;stroke-width:1;stroke-miterlimit:4;stroke-dasharray:none;stroke-dashoffset:0;stroke-opacity:1"
       id="path5856"
       cx="526.18109"
       cy="680.31494"
       r="339.4682" />
    <circle
       cy="680.31494"
       cx="526.18109"
       id="circle5867"
       style="opacity:1;fill:#000000;fill-opacity:1;stroke:#ffffff;stroke-width:1;stroke-linejoin:miter;stroke-miterlimit:4;stroke-dasharray:none;stroke-dashoffset:0;stroke-opacity:1"
       r="319.49948" />
    <circle
       style="opacity:1;fill:#000000;fill-opacity:1;stroke:#ffffff;stroke-width:1;stroke-miterlimit:4;stroke-dasharray:none;stroke-dashoffset:0;stroke-opacity:1"
       id="circle5869"
       cx="526.18109"
       cy="680.31494"
       r="299.53076" />
    <circle
       cy="680.31494"
       cx="526.18109"
       id="ellipse5871"
       style="opacity:1;fill:#000000;fill-opacity:1;stroke:#ffffff;stroke-width:1;stroke-miterlimit:4;stroke-dasharray:none;stroke-dashoffset:0;stroke-opacity:1"
       r="279.56204" />
    <circle
       style="opacity:1;fill:#000000;fill-opacity:1;stroke:#ffffff;stroke-width:1;stroke-miterlimit:4;stroke-dasharray:none;stroke-dashoffset:0;stroke-opacity:1"
       id="ellipse5873"
       cx="526.18109"
       cy="680.31494"
       r="259.59332" />
    <ellipse
       ry="239.62462"
       rx="239.6246"
       cy="680.31494"
       cx="526.18109"
       id="ellipse5875"
       style="opacity:1;fill:#000000;fill-opacity:1;stroke:#ffffff;stroke-width:1;stroke-miterlimit:4;stroke-dasharray:none;stroke-dashoffset:0;stroke-opacity:1" />
    <circle
       style="opacity:1;fill:#000000;fill-opacity:1;stroke:#ffffff;stroke-width:1;stroke-miterlimit:4;stroke-dasharray:none;stroke-dashoffset:0;stroke-opacity:1"
       id="ellipse5877"
       cx="526.18109"
       cy="680.31494"
       r="219.6559" />
    <circle
       cy="680.31494"
       cx="526.18109"
       id="ellipse5879"
       style="opacity:1;fill:#001433;fill-opacity:1;stroke:#ff8c00;stroke-width:5;stroke-miterlimit:4;stroke-dasharray:none;stroke-dashoffset:0;stroke-opacity:1"
       r="199.68718" />
    <g
       id="g3439"
       transform="matrix(1,-0.26794919,0,1,1.0816839e-7,140.9898)">
      <g
         transform="matrix(0.97185327,0,0,0.97185327,14.810277,19.148666)"
         id="g4250">
        <path
           style="fill:#ff8c00;fill-opacity:1;stroke:#ff8c00;stroke-width:16;stroke-linejoin:miter;stroke-miterlimit:4;stroke-dasharray:none;stroke-dashoffset:0;stroke-opacity:1"
           d="M 4.3164062,562.64984 H 1048.0458 V 797.97998 H 4.3164062 Z"
           id="rect4248"
           inkscape:connector-curvature="0" />
        <path
           style="fill:#001433;fill-opacity:1;stroke:#001436;stroke-width:0.89589351;stroke-linejoin:miter;stroke-miterlimit:4;stroke-dasharray:none;stroke-dashoffset:0;stroke-opacity:1"
           d="M 4.3164062,562.64984 H 1048.0458 V 797.97998 H 4.3164062 Z"
           id="rect4199"
           inkscape:connector-curvature="0" />
      </g>
      <g
         transform="matrix(1.4049103,0,0,1.2461994,-400.01937,-940.01634)"
         id="g4184">
        <g
           aria-label="DJ"
           transform="matrix(0.95490899,-0.00705381,0,1.0472202,0,0)"
           style="font-style:normal;font-variant:normal;font-weight:bold;font-stretch:normal;line-height:0%;font-family:Calibri;-inkscape-font-specification:'Calibri, Bold';text-align:start;letter-spacing:0px;word-spacing:0px;writing-mode:lr-tb;text-anchor:start;fill:#ff8c00;fill-opacity:1;stroke:none;stroke-width:1px;stroke-linecap:butt;stroke-linejoin:miter;stroke-opacity:1"
           id="text9642">
          <path
             d="m 405.04035,1244.9438 q 0,11.5737 -3.05597,19.8313 -2.99095,8.1926 -8.64774,13.3943 -5.65679,5.2016 -13.78436,7.6724 -8.06256,2.4058 -19.2461,2.4058 h -20.09136 q -2.14568,0 -3.64115,-1.2354 -1.43046,-1.3004 -1.43046,-4.1614 v -73.3432 q 0,-2.8609 1.43046,-4.0963 1.49547,-1.3004 3.64115,-1.3004 h 21.58684 q 11.24856,0 19.05103,2.6659 7.86749,2.6008 13.19918,7.8024 5.39671,5.1367 8.19259,12.7441 2.79589,7.6074 2.79589,17.6205 z m -17.6856,0.5852 q 0,-5.9819 -1.43045,-11.1185 -1.36544,-5.1366 -4.48642,-8.9078 -3.05597,-3.7712 -7.93252,-5.8519 -4.81152,-2.1456 -12.67901,-2.1456 h -8.64774 v 57.2181 h 8.90782 q 7.02222,0 11.83375,-1.8206 4.81152,-1.8206 7.99753,-5.4617 3.25103,-3.7062 4.81152,-9.1679 1.62552,-5.4618 1.62552,-12.7441 z"
             style="font-size:133.16217041px;line-height:1.25"
             id="path845"
             inkscape:connector-curvature="0" />
          <path
             d="m 443.46752,1264.8401 q 0,5.7219 -1.10535,10.3383 -1.04033,4.5515 -3.64116,7.8025 -2.5358,3.186 -6.69712,4.8765 -4.16132,1.6906 -10.27325,1.6906 -1.95062,0 -3.90124,-0.3251 -1.88559,-0.2601 -3.51111,-0.7153 -1.56049,-0.4551 -2.73086,-0.9753 -1.17037,-0.5201 -1.5605,-0.9103 -0.39012,-0.4551 -0.6502,-0.9102 -0.26009,-0.4552 -0.45515,-1.1704 -0.19506,-0.7803 -0.26008,-1.8856 -0.065,-1.1054 -0.065,-2.7959 0,-2.2107 0.065,-3.7062 0.13004,-1.5605 0.3251,-2.4057 0.26008,-0.9103 0.65021,-1.2354 0.45514,-0.3901 1.10535,-0.3901 0.58518,0 1.36543,0.4551 0.78025,0.3901 1.75556,0.8453 0.97531,0.4551 2.27572,0.9103 1.30041,0.3901 3.05597,0.3901 1.75555,0 3.05596,-0.4552 1.36544,-0.5201 2.2107,-1.6905 0.91029,-1.2354 1.36544,-3.251 0.45514,-2.0157 0.45514,-5.2017 v -57.8033 q 0,-0.6502 0.39012,-1.1053 0.45515,-0.5202 1.36544,-0.8453 0.9753,-0.3251 2.66584,-0.4551 1.69054,-0.1951 4.16132,-0.1951 2.47078,0 4.0963,0.1951 1.62551,0.13 2.60082,0.4551 1.04033,0.3251 1.43045,0.8453 0.45515,0.4551 0.45515,1.1053 z"
             style="font-size:133.16217041px;line-height:1.25"
             id="path847"
             inkscape:connector-curvature="0" />
        </g>
        <g
           aria-label="BRACHOLE"
           transform="matrix(0.95490899,-0.00705381,0,1.0472202,0,0)"
           style="font-style:normal;font-variant:normal;font-weight:bold;font-stretch:normal;line-height:0%;font-family:Calibri;-inkscape-font-specification:'Calibri, Bold';text-align:start;letter-spacing:0px;word-spacing:0px;writing-mode:lr-tb;text-anchor:start;fill:#ffffff;fill-opacity:1;stroke:none;stroke-width:1px;stroke-linecap:butt;stroke-linejoin:miter;stroke-opacity:1"
           id="text9646">
          <path
             d="m 527.16233,1263.0196 q 0,4.4864 -1.23539,8.1275 -1.2354,3.6412 -3.4461,6.4371 -2.14568,2.7959 -5.20164,4.8115 -2.99095,2.0156 -6.6321,3.3161 -3.64116,1.3004 -7.80247,1.9506 -4.0963,0.5852 -9.16791,0.5852 h -22.36708 q -2.14568,0 -3.64115,-1.2354 -1.43046,-1.3004 -1.43046,-4.1614 v -73.3432 q 0,-2.8609 1.43046,-4.0963 1.49547,-1.3004 3.64115,-1.3004 h 21.13169 q 7.73745,0 13.06914,1.3004 5.39671,1.3004 9.03786,3.9663 3.70618,2.6008 5.65679,6.6321 1.95062,4.0313 1.95062,9.493 0,3.056 -0.78025,5.7868 -0.78024,2.6659 -2.27572,4.8766 -1.49547,2.2107 -3.70617,3.9012 -2.14568,1.6905 -4.94157,2.7309 3.57614,0.6502 6.56708,2.2757 3.05597,1.6255 5.26667,4.2263 2.27572,2.5358 3.57613,5.9819 1.30042,3.4461 1.30042,7.7375 z m -22.107,-35.4363 q 0,-2.5358 -0.78025,-4.5514 -0.78025,-2.0156 -2.34074,-3.316 -1.5605,-1.3655 -3.96626,-2.0807 -2.34074,-0.7152 -6.307,-0.7152 h -8.64773 v 21.8469 h 9.55802 q 3.70618,0 5.91688,-0.8453 2.2107,-0.9103 3.64115,-2.4057 1.49547,-1.5605 2.2107,-3.5762 0.71523,-2.0806 0.71523,-4.3564 z m 4.35638,36.0215 q 0,-2.926 -0.97531,-5.2017 -0.97531,-2.3407 -2.86091,-3.9012 -1.8856,-1.5605 -4.81152,-2.4058 -2.92593,-0.8453 -7.60741,-0.8453 h -10.14321 v 23.9276 h 12.35391 q 3.57613,0 5.98189,-0.7152 2.47078,-0.7803 4.22634,-2.2107 1.82058,-1.4955 2.79589,-3.6412 1.04033,-2.2107 1.04033,-5.0065 z"
             style="font-size:133.16217041px;line-height:1.25"
             id="path850"
             inkscape:connector-curvature="0" />
          <path
             d="m 603.30144,1286.0369 q 0,0.7152 -0.26008,1.2353 -0.26009,0.4552 -1.23539,0.7803 -0.97531,0.3251 -2.86091,0.4551 -1.8856,0.1301 -5.13663,0.1301 -2.73086,0 -4.35638,-0.1301 -1.62551,-0.13 -2.60082,-0.4551 -0.91029,-0.3901 -1.30041,-0.9103 -0.39013,-0.5852 -0.65021,-1.3654 l -7.54239,-18.791 q -1.36543,-3.186 -2.66584,-5.6568 -1.30041,-2.4707 -2.92593,-4.0963 -1.56049,-1.6905 -3.64115,-2.5358 -2.08066,-0.8452 -4.81152,-0.8452 h -5.33169 v 32.0551 q 0,0.6502 -0.45515,1.1704 -0.39012,0.5202 -1.36543,0.8453 -0.97531,0.3251 -2.60082,0.5201 -1.62552,0.1951 -4.16132,0.1951 -2.47078,0 -4.16132,-0.1951 -1.62551,-0.195 -2.60082,-0.5201 -0.97531,-0.3251 -1.36544,-0.8453 -0.39012,-0.5202 -0.39012,-1.1704 v -76.3992 q 0,-2.8609 1.43045,-4.0963 1.49548,-1.3004 3.64116,-1.3004 h 21.7819 q 3.31605,0 5.46173,0.1301 2.14567,0.13 3.90123,0.3251 5.07161,0.7152 9.10288,2.4707 4.0963,1.7556 6.89219,4.6165 2.8609,2.7959 4.35638,6.6971 1.49547,3.8362 1.49547,8.8428 0,4.2264 -1.10535,7.7375 -1.04033,3.4461 -3.12099,6.1769 -2.08066,2.7309 -5.13663,4.7465 -3.05596,2.0157 -6.9572,3.2511 1.8856,0.9103 3.51111,2.2107 1.69054,1.3004 3.12099,3.186 1.49547,1.8205 2.79589,4.2263 1.30041,2.3408 2.5358,5.3317 l 7.08724,16.5802 q 0.97531,2.4708 1.30042,3.6412 0.3251,1.1054 0.3251,1.7556 z m -22.04198,-57.0881 q 0,-4.1613 -1.8856,-7.0222 -1.8856,-2.861 -6.17695,-4.0313 -1.30042,-0.3251 -2.99095,-0.5202 -1.62552,-0.195 -4.55144,-0.195 h -7.67243 v 23.8625 h 8.71276 q 3.64115,0 6.37201,-0.8453 2.73087,-0.9102 4.55145,-2.4707 1.82057,-1.6256 2.73086,-3.8363 0.91029,-2.2107 0.91029,-4.9415 z"
             style="font-size:133.16217041px;line-height:1.25"
             id="path852"
             inkscape:connector-curvature="0" />
          <path
             d="m 684.70722,1281.8755 q 0.78025,2.3408 0.97531,3.7062 0.19506,1.3654 -0.52016,2.0807 -0.71523,0.6502 -2.53581,0.7802 -1.82057,0.1951 -5.00658,0.1951 -3.31605,0 -5.20165,-0.1301 -1.82058,-0.065 -2.79588,-0.3251 -0.97531,-0.3251 -1.36544,-0.8452 -0.39012,-0.5202 -0.6502,-1.3655 l -5.65679,-16.9053 h -31.60001 l -5.33169,16.4502 q -0.26008,0.9103 -0.71523,1.5605 -0.39012,0.5852 -1.36543,0.9753 -0.91029,0.3251 -2.66584,0.4551 -1.69054,0.1301 -4.48642,0.1301 -2.99095,0 -4.68149,-0.1951 -1.69053,-0.195 -2.34074,-0.9103 -0.6502,-0.7802 -0.45514,-2.1456 0.19506,-1.3655 0.97531,-3.6412 l 25.94321,-74.6436 q 0.39013,-1.1054 0.91029,-1.7556 0.52017,-0.7152 1.62552,-1.0403 1.17037,-0.3901 3.186,-0.4552 2.01564,-0.13 5.33169,-0.13 3.83622,0 6.11194,0.13 2.27572,0.065 3.51111,0.4552 1.30041,0.3251 1.82058,1.0403 0.58518,0.7152 0.97531,1.9506 z m -38.62223,-61.7045 h -0.065 l -11.89877,35.7613 h 23.86256 z"
             style="font-size:133.16217041px;line-height:1.25"
             id="path854"
             inkscape:connector-curvature="0" />
          <path
             d="m 753.04386,1275.5035 q 0,1.6255 -0.13004,2.7959 -0.065,1.1054 -0.26009,1.9506 -0.19506,0.7803 -0.52016,1.3655 -0.3251,0.5851 -1.04033,1.3654 -0.71523,0.7152 -2.79589,1.8856 -2.01563,1.1704 -5.00658,2.2757 -2.92593,1.0403 -6.76214,1.7556 -3.7712,0.7152 -8.1926,0.7152 -8.64774,0 -15.60494,-2.6659 -6.9572,-2.6658 -11.83375,-7.9325 -4.87654,-5.3317 -7.47736,-13.2642 -2.60083,-7.9325 -2.60083,-18.4658 0,-10.7284 2.86091,-19.051 2.8609,-8.3227 7.99753,-13.9795 5.13663,-5.6568 12.28889,-8.5827 7.21729,-2.9259 15.86503,-2.9259 3.51111,0 6.76214,0.5852 3.25103,0.5852 5.98189,1.5605 2.79589,0.9102 5.00659,2.1456 2.2107,1.2354 3.05597,2.1457 0.91028,0.8453 1.23539,1.4305 0.3251,0.5852 0.52016,1.4954 0.19506,0.9103 0.26008,2.1457 0.13005,1.2354 0.13005,3.056 0,1.9506 -0.13005,3.316 -0.13004,1.3655 -0.45514,2.2107 -0.3251,0.8453 -0.78025,1.2354 -0.45514,0.3902 -1.04033,0.3902 -0.97531,0 -2.47078,-1.1054 -1.49547,-1.1704 -3.90123,-2.5358 -2.34075,-1.4304 -5.6568,-2.5358 -3.25103,-1.1704 -7.80247,-1.1704 -5.00658,0 -8.97284,2.0807 -3.90123,2.0156 -6.69712,5.8518 -2.73086,3.7712 -4.16132,9.1679 -1.43045,5.3968 -1.43045,12.1589 0,7.4123 1.49547,12.8741 1.5605,5.3967 4.35638,8.9078 2.86091,3.5111 6.82717,5.2667 4.03127,1.6905 9.03786,1.6905 4.55144,0 7.86749,-1.0403 3.31605,-1.1054 5.65679,-2.4058 2.40576,-1.3004 3.90124,-2.3407 1.56049,-1.0404 2.40576,-1.0404 0.6502,0 1.04033,0.2601 0.39012,0.2601 0.6502,1.0403 0.26009,0.7803 0.39013,2.2107 0.13004,1.3655 0.13004,3.7062 z"
             style="font-size:133.16217041px;line-height:1.25"
             id="path856"
             inkscape:connector-curvature="0" />
          <path
             d="m 831.00356,1285.9068 q 0,0.6502 -0.45515,1.1704 -0.39012,0.5202 -1.36543,0.8453 -0.97531,0.3251 -2.60082,0.5201 -1.62552,0.1951 -4.0963,0.1951 -2.5358,0 -4.22634,-0.1951 -1.62551,-0.195 -2.60082,-0.5201 -0.91029,-0.3251 -1.36544,-0.8453 -0.39012,-0.5202 -0.39012,-1.1704 v -34.0058 h -31.46997 v 34.0058 q 0,0.6502 -0.39012,1.1704 -0.39012,0.5202 -1.36543,0.8453 -0.97531,0.3251 -2.60082,0.5201 -1.62552,0.1951 -4.16132,0.1951 -2.47079,0 -4.16132,-0.1951 -1.62552,-0.195 -2.60082,-0.5201 -0.97531,-0.3251 -1.43046,-0.8453 -0.39012,-0.5202 -0.39012,-1.1704 v -79.4551 q 0,-0.6503 0.39012,-1.1704 0.45515,-0.5202 1.43046,-0.8453 0.9753,-0.3251 2.60082,-0.5201 1.69053,-0.1951 4.16132,-0.1951 2.5358,0 4.16132,0.1951 1.62551,0.195 2.60082,0.5201 0.97531,0.3251 1.36543,0.8453 0.39012,0.5201 0.39012,1.1704 v 30.8847 h 31.46997 v -30.8847 q 0,-0.6503 0.39012,-1.1704 0.45515,-0.5202 1.36544,-0.8453 0.97531,-0.3251 2.60082,-0.5201 1.69054,-0.1951 4.22634,-0.1951 2.47078,0 4.0963,0.1951 1.62551,0.195 2.60082,0.5201 0.97531,0.3251 1.36543,0.8453 0.45515,0.5201 0.45515,1.1704 z"
             style="font-size:133.16217041px;line-height:1.25"
             id="path858"
             inkscape:connector-curvature="0" />
          <path
             d="m 925.02332,1245.2039 q 0,10.4683 -2.60082,18.726 -2.60083,8.2576 -7.73745,14.0444 -5.13663,5.7218 -12.74404,8.7778 -7.54239,2.9909 -17.49054,2.9909 -9.81811,0 -17.16544,-2.5358 -7.2823,-2.6008 -12.15885,-7.8675 -4.87654,-5.2666 -7.34732,-13.3942 -2.40576,-8.1276 -2.40576,-19.2461 0,-10.2082 2.60082,-18.3358 2.60082,-8.1926 7.73745,-13.9144 5.13663,-5.7218 12.67901,-8.7778 7.60741,-3.056 17.62058,-3.056 9.55803,0 16.84034,2.5358 7.34732,2.5358 12.22387,7.8025 4.94156,5.2667 7.41235,13.3292 2.5358,7.9976 2.5358,18.921 z m -17.94568,0.9103 q 0,-6.6321 -1.04033,-12.0288 -1.04033,-5.4617 -3.57614,-9.2979 -2.47078,-3.9013 -6.6321,-5.9819 -4.16131,-2.1457 -10.40329,-2.1457 -6.307,0 -10.53334,2.4057 -4.22634,2.3408 -6.82716,6.307 -2.60082,3.9663 -3.70617,9.298 -1.04033,5.2667 -1.04033,11.1835 0,6.8922 1.04033,12.419 1.04033,5.4617 3.51111,9.3629 2.47078,3.9013 6.6321,5.9819 4.16132,2.0157 10.46831,2.0157 6.307,0 10.53334,-2.3408 4.22634,-2.3407 6.82716,-6.372 2.60083,-4.0313 3.64116,-9.363 1.10535,-5.3967 1.10535,-11.4436 z"
             style="font-size:133.16217041px;line-height:1.25"
             id="path860"
             inkscape:connector-curvature="0" />
          <path
             d="m 985.55749,1281.0953 q 0,1.9506 -0.19507,3.316 -0.13004,1.3005 -0.45514,2.2107 -0.3251,0.8453 -0.84527,1.2354 -0.45514,0.3902 -1.10535,0.3902 h -38.55721 q -2.14568,0 -3.64115,-1.2354 -1.43045,-1.3004 -1.43045,-4.1614 v -76.3991 q 0,-0.6503 0.39012,-1.1704 0.45514,-0.5202 1.43045,-0.8453 0.97531,-0.3251 2.60083,-0.5201 1.69053,-0.1951 4.16131,-0.1951 2.53581,0 4.16132,0.1951 1.62552,0.195 2.60083,0.5201 0.9753,0.3251 1.36543,0.8453 0.45514,0.5201 0.45514,1.1704 v 67.6864 h 26.46338 q 0.65021,0 1.10535,0.3901 0.52017,0.3251 0.84527,1.1704 0.3251,0.7802 0.45514,2.1457 0.19507,1.3004 0.19507,3.251 z"
             style="font-size:133.16217041px;line-height:1.25"
             id="path862"
             inkscape:connector-curvature="0" />
          <path
             d="m 1045.6365,1281.5504 q 0,1.8856 -0.195,3.186 -0.1301,1.2354 -0.4552,2.0157 -0.3251,0.7802 -0.8452,1.1704 -0.4552,0.3251 -1.0404,0.3251 h -42.2634 q -2.14563,0 -3.6411,-1.2354 -1.43046,-1.3004 -1.43046,-4.1614 v -73.3432 q 0,-2.8609 1.43046,-4.0963 1.49547,-1.3004 3.6411,-1.3004 h 42.0034 q 0.5851,0 1.0403,0.3251 0.4551,0.3251 0.7802,1.1704 0.3251,0.7802 0.4552,2.0806 0.195,1.2354 0.195,3.1861 0,1.8205 -0.195,3.1209 -0.1301,1.2354 -0.4552,2.0157 -0.3251,0.7802 -0.7802,1.1704 -0.4552,0.3251 -1.0403,0.3251 h -30.0396 v 20.5465 h 25.4231 q 0.5852,0 1.0403,0.3901 0.5202,0.3251 0.8453,1.1053 0.3251,0.7153 0.4551,2.0157 0.1951,1.2354 0.1951,3.0559 0,1.8856 -0.1951,3.121 -0.13,1.2354 -0.4551,2.0157 -0.3251,0.7152 -0.8453,1.0403 -0.4551,0.3251 -1.0403,0.3251 h -25.4231 v 23.7325 h 30.2996 q 0.5852,0 1.0404,0.3901 0.5201,0.3251 0.8452,1.1054 0.3251,0.7802 0.4552,2.0806 0.195,1.2354 0.195,3.121 z"
             style="font-size:133.16217041px;line-height:1.25"
             id="path864"
             inkscape:connector-curvature="0" />
        </g>
      </g>
    </g>
    <path
       sodipodi:type="star"
       style="fill:#ffffff;fill-opacity:1;stroke:#ff8c00;stroke-width:13.29803848;stroke-linejoin:miter;stroke-miterlimit:4;stroke-dasharray:none;stroke-dashoffset:0;stroke-opacity:1"
       id="path4188"
       sodipodi:sides="5"
       sodipodi:cx="639.19244"
       sodipodi:cy="802.81384"
       sodipodi:r1="9.712471"
       sodipodi:r2="4.856236"
       sodipodi:arg1="0.95054684"
       sodipodi:arg2="1.5788654"
       inkscape:flatsided="false"
       inkscape:rounded="0"
       inkscape:randomized="0"
       d="m 644.8377,810.71721 -5.68444,-3.04729 -5.73288,2.95516 1.14155,-6.34789 -4.58208,-4.5391 6.38996,-0.87593 2.901,-5.76047 2.80767,5.80654 6.37499,0.97893 -4.65473,4.46456 z"
       inkscape:transform-center-x="-0.024204475"
       inkscape:transform-center-y="-0.90439486" />
    <path
       inkscape:transform-center-y="-0.90439486"
       inkscape:transform-center-x="-0.024204475"
       d="m 577.59399,836.52794 -5.68444,-3.04729 -5.73288,2.95516 1.14155,-6.34789 -4.58208,-4.5391 6.38996,-0.87593 2.901,-5.76047 2.80766,5.80654 6.375,0.97893 -4.65473,4.46456 z"
       inkscape:randomized="0"
       inkscape:rounded="0"
       inkscape:flatsided="false"
       sodipodi:arg2="1.5788654"
       sodipodi:arg1="0.95054684"
       sodipodi:r2="4.856236"
       sodipodi:r1="9.712471"
       sodipodi:cy="828.62457"
       sodipodi:cx="571.94873"
       sodipodi:sides="5"
       id="path4190"
       style="fill:#ffffff;fill-opacity:1;stroke:#ffffff;stroke-width:13.29803848;stroke-linejoin:miter;stroke-miterlimit:4;stroke-dasharray:none;stroke-dashoffset:0;stroke-opacity:1"
       sodipodi:type="star" />
    <path
       sodipodi:type="star"
       style="fill:#ffffff;fill-opacity:1;stroke:#ff8c00;stroke-width:13.29803848;stroke-linejoin:miter;stroke-miterlimit:4;stroke-dasharray:none;stroke-dashoffset:0;stroke-opacity:1"
       id="path4192"
       sodipodi:sides="5"
       sodipodi:cx="504.70505"
       sodipodi:cy="841.52991"
       sodipodi:r1="9.712471"
       sodipodi:r2="4.856236"
       sodipodi:arg1="0.95054684"
       sodipodi:arg2="1.5788654"
       inkscape:flatsided="false"
       inkscape:rounded="0"
       inkscape:randomized="0"
       d="m 510.35031,849.43327 -5.68445,-3.04728 -5.73288,2.95515 1.14155,-6.34789 -4.58207,-4.5391 6.38996,-0.87592 2.901,-5.76048 2.80766,5.80654 6.37499,0.97893 -4.65473,4.46456 z"
       inkscape:transform-center-x="-0.024204475"
       inkscape:transform-center-y="-0.90439486" />
    <path
       inkscape:transform-center-y="-0.90439486"
       inkscape:transform-center-x="-0.024204475"
       d="m 564.68878,524.0825 -5.68445,-3.04728 -5.73288,2.95515 1.14155,-6.34789 -4.58207,-4.5391 6.38996,-0.87592 2.901,-5.76048 2.80766,5.80654 6.37499,0.97893 -4.65473,4.46457 z"
       inkscape:randomized="0"
       inkscape:rounded="0"
       inkscape:flatsided="false"
       sodipodi:arg2="1.5788654"
       sodipodi:arg1="0.95054684"
       sodipodi:r2="4.856236"
       sodipodi:r1="9.712471"
       sodipodi:cy="516.17914"
       sodipodi:cx="559.04352"
       sodipodi:sides="5"
       id="path4194"
       style="fill:#ffffff;fill-opacity:1;stroke:#ffffff;stroke-width:13.29803848;stroke-linejoin:miter;stroke-miterlimit:4;stroke-dasharray:none;stroke-dashoffset:0;stroke-opacity:1"
       sodipodi:type="star" />
    <path
       sodipodi:type="star"
       style="fill:#000000;fill-opacity:0;stroke:#ffffff;stroke-width:13.29803848;stroke-linejoin:miter;stroke-miterlimit:4;stroke-dasharray:none;stroke-dashoffset:0;stroke-opacity:1"
       id="path4196"
       sodipodi:sides="5"
       sodipodi:cx="414.36765"
       sodipodi:cy="561.00824"
       sodipodi:r1="9.712471"
       sodipodi:r2="4.856236"
       sodipodi:arg1="0.95054684"
       sodipodi:arg2="1.5788654"
       inkscape:flatsided="false"
       inkscape:rounded="0"
       inkscape:randomized="0"
       d="m 420.0129,568.9116 -5.68444,-3.04728 -5.73288,2.95515 1.14155,-6.34789 -4.58208,-4.53909 6.38997,-0.87593 2.90099,-5.76048 2.80767,5.80654 6.37499,0.97893 -4.65473,4.46457 z"
       inkscape:transform-center-x="-0.024204475"
       inkscape:transform-center-y="-0.90439486" />
    <path
       inkscape:transform-center-y="-0.90439486"
       inkscape:transform-center-x="-0.024204475"
       d="m 492.35089,546.49705 -5.68445,-3.04728 -5.73288,2.95515 1.14155,-6.34789 -4.58207,-4.5391 6.38996,-0.87592 2.901,-5.76048 2.80766,5.80654 6.37499,0.97893 -4.65473,4.46457 z"
       inkscape:randomized="0"
       inkscape:rounded="0"
       inkscape:flatsided="false"
       sodipodi:arg2="1.5788654"
       sodipodi:arg1="0.95054684"
       sodipodi:r2="4.856236"
       sodipodi:r1="9.712471"
       sodipodi:cy="538.59369"
       sodipodi:cx="486.70563"
       sodipodi:sides="5"
       id="path4198"
       style="fill:#ffffff;fill-opacity:1;stroke:#ff8c00;stroke-width:13.29803848;stroke-linejoin:miter;stroke-miterlimit:4;stroke-dasharray:none;stroke-dashoffset:0;stroke-opacity:1"
       sodipodi:type="star" />
  </g>
</svg>
