<?xml version="1.0" encoding="UTF-8" standalone="no"?>
<!-- Created with Inkscape (http://www.inkscape.org/) -->

<svg
   xmlns:dc="http://purl.org/dc/elements/1.1/"
   xmlns:cc="http://creativecommons.org/ns#"
   xmlns:rdf="http://www.w3.org/1999/02/22-rdf-syntax-ns#"
   xmlns:svg="http://www.w3.org/2000/svg"
   xmlns="http://www.w3.org/2000/svg"
   xmlns:xlink="http://www.w3.org/1999/xlink"
   xmlns:sodipodi="http://sodipodi.sourceforge.net/DTD/sodipodi-0.dtd"
   xmlns:inkscape="http://www.inkscape.org/namespaces/inkscape"
   width="206.04694mm"
   height="73.088898mm"
   viewBox="0 0 206.04694 73.088898"
   version="1.1"
   id="svg4629"
   sodipodi:docname="wesele4.svg"
   inkscape:version="0.92.2 (5c3e80d, 2017-08-06)">
  <defs
     id="defs4623">
    <linearGradient
       inkscape:collect="always"
       id="linearGradient5203">
      <stop
         style="stop-color:#00ff00;stop-opacity:1;"
         offset="0"
         id="stop5199" />
      <stop
         style="stop-color:#ff00ff;stop-opacity:1"
         offset="1"
         id="stop5201" />
    </linearGradient>
    <linearGradient
       inkscape:collect="always"
       xlink:href="#linearGradient5203"
       id="linearGradient5205"
       x1="54.617561"
       y1="196.64732"
       x2="231.32143"
       y2="197.40327"
       gradientUnits="userSpaceOnUse" />
    <linearGradient
       inkscape:collect="always"
       xlink:href="#linearGradient5203"
       id="linearGradient5207"
       gradientUnits="userSpaceOnUse"
       x1="54.617561"
       y1="196.64732"
       x2="231.32143"
       y2="197.40327"
       gradientTransform="matrix(4.3838041,-0.42438814,0,3.7795276,-240.03142,-524.21622)" />
    <linearGradient
       inkscape:collect="always"
       xlink:href="#linearGradient5203"
       id="linearGradient5215"
       gradientUnits="userSpaceOnUse"
       x1="54.617561"
       y1="196.64732"
       x2="231.32143"
       y2="197.40327" />
    <linearGradient
       inkscape:collect="always"
       xlink:href="#linearGradient5203"
       id="linearGradient5573"
       gradientUnits="userSpaceOnUse"
       x1="54.617561"
       y1="196.64732"
       x2="231.32143"
       y2="197.40327" />
    <linearGradient
       inkscape:collect="always"
       xlink:href="#linearGradient5203"
       id="linearGradient888"
       gradientUnits="userSpaceOnUse"
       gradientTransform="matrix(4.3838037,-0.42438834,0,3.7795276,-240.03142,-524.21618)"
       x1="54.617561"
       y1="196.64732"
       x2="231.32143"
       y2="197.40327" />
    <filter
       inkscape:collect="always"
       style="color-interpolation-filters:sRGB"
       id="filter928"
       x="-0.0080633797"
       width="1.0161268"
       y="-0.023447106"
       height="1.0468942">
      <feGaussianBlur
         inkscape:collect="always"
         stdDeviation="0.68083305"
         id="feGaussianBlur930" />
    </filter>
    <linearGradient
       inkscape:collect="always"
       xlink:href="#linearGradient5203"
       id="linearGradient932"
       gradientUnits="userSpaceOnUse"
       gradientTransform="matrix(4.3838037,-0.42438834,0,3.7795276,-240.03142,-524.21618)"
       x1="54.617561"
       y1="196.64732"
       x2="231.32143"
       y2="197.40327" />
    <linearGradient
       inkscape:collect="always"
       xlink:href="#linearGradient5203"
       id="linearGradient934"
       gradientUnits="userSpaceOnUse"
       x1="54.617561"
       y1="196.64732"
       x2="231.32143"
       y2="197.40327" />
    <linearGradient
       inkscape:collect="always"
       xlink:href="#linearGradient5203"
       id="linearGradient936"
       gradientUnits="userSpaceOnUse"
       x1="54.617561"
       y1="196.64732"
       x2="231.32143"
       y2="197.40327" />
    <linearGradient
       inkscape:collect="always"
       xlink:href="#linearGradient5203"
       id="linearGradient946"
       gradientUnits="userSpaceOnUse"
       x1="54.617561"
       y1="196.64732"
       x2="231.32143"
       y2="197.40327" />
    <linearGradient
       inkscape:collect="always"
       xlink:href="#linearGradient5203"
       id="linearGradient948"
       gradientUnits="userSpaceOnUse"
       x1="54.617561"
       y1="196.64732"
       x2="231.32143"
       y2="197.40327" />
  </defs>
  <sodipodi:namedview
     id="base"
     pagecolor="#ffffff"
     bordercolor="#666666"
     borderopacity="1.0"
     inkscape:pageopacity="0.0"
     inkscape:pageshadow="2"
     inkscape:zoom="0.98994949"
     inkscape:cx="326.00181"
     inkscape:cy="112.89935"
     inkscape:document-units="mm"
     inkscape:current-layer="g5197"
     showgrid="false"
     fit-margin-top="0"
     fit-margin-left="0"
     fit-margin-right="0"
     fit-margin-bottom="0"
     inkscape:window-width="1600"
     inkscape:window-height="821"
     inkscape:window-x="-9"
     inkscape:window-y="-9"
     inkscape:window-maximized="1"
     gridtolerance="1"
     objecttolerance="1"
     guidetolerance="1" />
  <metadata
     id="metadata4626">
    <rdf:RDF>
      <cc:Work
         rdf:about="">
        <dc:format>image/svg+xml</dc:format>
        <dc:type
           rdf:resource="http://purl.org/dc/dcmitype/StillImage" />
        <dc:title></dc:title>
      </cc:Work>
    </rdf:RDF>
  </metadata>
  <g
     inkscape:label="Layer 1"
     inkscape:groupmode="layer"
     id="layer1"
     transform="translate(-55.226025,-151.27549)">
    <g
       aria-label="Wesela"
       style="font-style:normal;font-variant:normal;font-weight:normal;font-stretch:normal;font-size:57.09355545px;line-height:1.25;font-family:Pacifico;-inkscape-font-specification:'Pacifico, Normal';font-variant-ligatures:normal;font-variant-caps:normal;font-variant-numeric:normal;font-feature-settings:normal;text-align:start;letter-spacing:0px;word-spacing:0px;writing-mode:lr-tb;text-anchor:start;fill:#d42aff;fill-opacity:1;stroke:#000000;stroke-width:1.42733955;stroke-opacity:1"
       id="text5176">
      <g
         id="g5197"
         style="fill:url(#linearGradient5205);fill-opacity:1">
        <g
           id="g944"
           style="fill:url(#linearGradient948)">
          <g
             transform="translate(-0.9998573,-1.000395)"
             style="fill:url(#linearGradient936);filter:url(#filter928)"
             id="g902">
            <g
               transform="matrix(1.1598815,-0.11228603,0,1,-6.4762888,10.275736)"
               style="fill:url(#linearGradient934)"
               id="g900">
              <path
                 inkscape:connector-curvature="0"
                 id="path898"
                 transform="matrix(0.22811238,0.02561383,0,0.26458333,54.75414,144.847)"
                 d="m 665.47852,18.654297 c -0.9464,-0.0095 -1.92073,0.03394 -2.92188,0.130859 -14.18295,1.373026 -26.44777,10.616919 -36.79297,27.730469 -10.17831,17.09742 -17.93592,37.125253 -23.27539,60.083985 -5.1726,22.94255 -7.75976,43.18959 -7.75976,60.74023 0,6.83082 0.49106,13.14082 1.4707,18.93164 -6.26619,6.43871 -13.47107,12.00781 -21.63867,16.6836 -9.5109,5.38032 -18.02069,8.43326 -25.5293,9.16015 -11.68006,1.13073 -19.60589,-1.41138 -23.77734,-7.625 19.68924,-6.07797 33.62277,-13.03642 41.79882,-20.87695 8.34288,-8.00055 12.51368,-16.96445 12.51368,-26.89062 0,-8.48761 -2.91975,-14.89293 -8.75977,-19.21875 -5.84004,-4.46965 -13.5996,-6.23767 -23.27734,-5.30079 -10.84577,1.04998 -20.60658,4.5137 -29.28321,10.38868 -8.50975,5.85885 -15.18456,13.3376 -20.02343,22.4375 -4.83891,8.95605 -7.25782,18.39802 -7.25782,28.32422 0,3.15508 0.2516,6.12883 0.72657,8.9414 -7.1823,7.13716 -13.66197,11.95989 -19.43164,14.44727 0.33372,-2.62174 0.50195,-4.65126 0.50195,-6.08985 0,-5.03501 -1.41928,-9.50117 -4.25586,-13.39843 -2.66974,-4.05729 -6.67423,-8.84988 -12.01367,-14.375 -3.67088,-3.5288 -6.42433,-6.49842 -8.25977,-8.91016 -1.66856,-2.4279 -2.50195,-4.72102 -2.50195,-6.87891 0,-3.59644 1.50047,-8.12804 4.50391,-13.59765 1.16799,-1.98324 2.08648,-3.94414 2.7539,-5.87891 0.66742,-1.93475 1,-3.33217 1,-4.19531 0,-1.58244 -0.91654,-2.64589 -2.75195,-3.1875 -1.83544,-0.54161 -5.0897,-0.5851 -9.76172,-0.13281 -10.0115,0.96919 -16.60121,4.77154 -19.77149,11.4082 -3.67085,7.83596 -7.42594,15.46423 -11.26367,22.88476 -3.83775,7.2767 -7.17513,13.13947 -10.01172,17.58594 -3.63005,5.26949 -8.65998,11.7462 -15.00976,19.36328 -4.89856,4.28538 -10.28319,8.12019 -16.16992,11.49024 -9.51093,5.38032 -18.02069,8.43521 -25.5293,9.16211 -11.68006,1.13072 -19.60589,-1.41138 -23.77734,-7.625 19.68924,-6.07798 33.62081,-13.03643 41.79687,-20.87696 8.34291,-8.00055 12.51563,-16.96445 12.51563,-26.89062 0,-8.48761 -2.91972,-14.89488 -8.75977,-19.2207 -5.84002,-4.46965 -13.59957,-6.23572 -23.27734,-5.29883 -10.84577,1.04996 -20.60661,4.51174 -29.28321,10.38672 -0.84324,0.58056 -1.6635,1.18254 -2.4707,1.79492 -1.69661,-1.01206 -4.26994,-1.35744 -7.74023,-1.02149 -11.51322,1.11458 -21.52541,1.43575 -30.03516,0.96485 8.17603,-20.64388 12.26367,-39.09369 12.26367,-55.34961 0,-11.508641 -3.16918,-20.263955 -9.50976,-26.267579 -5.40203,-5.267308 -12.52956,-7.834267 -21.38086,-7.701172 -1.26447,0.01901 -2.56358,0.09343 -3.89844,0.222656 -8.67663,0.839969 -16.60246,3.548221 -23.77734,8.126953 -7.00804,4.562606 -12.59808,11.002357 -16.76954,19.318362 -4.00457,8.15599 -6.00585,17.91646 -6.00585,29.28125 0,11.36476 2.58521,21.18442 7.75781,29.45898 5.17259,8.13074 12.849,14.43674 23.02734,18.91797 -8.17606,16.32817 -17.18663,30.21917 -27.03125,41.67383 -9.84461,11.31078 -18.77206,17.35355 -26.78125,18.1289 -6.84118,0.66233 -12.0967,-1.27475 -15.76758,-5.81054 -3.50401,-4.6958 -5.9249,-11.7264 -7.25976,-21.0918 -1.16801,-9.38153 -1.75196,-22.05521 -1.75196,-38.02344 0,-23.44882 2.33775,-47.12428 7.00977,-71.02539 0.33372,-1.32702 0.5,-3.14162 0.5,-5.443356 0,-3.884145 -1.25104,-6.639716 -3.75391,-8.267578 -2.33601,-1.787865 -6.09107,-2.432391 -11.26367,-1.931641 -6.17374,0.597669 -11.0967,2.369627 -14.76758,5.314453 -3.50401,2.784799 -5.92295,7.550202 -7.25781,14.296872 -5.67317,29.32077 -12.5974,54.80614 -20.77344,76.45703 -8.176023,21.50703 -16.436397,37.98828 -24.779293,49.44141 -8.176043,11.29313 -15.18341,17.22175 -21.023438,17.78711 -6.507462,0.62998 -11.679847,-4.1199 -15.517578,-14.25 -3.837734,-10.13009 -5.755859,-24.83249 -5.755859,-44.10937 0,-20.71555 2.502075,-46.0617 7.507812,-76.03711 0.333719,-2.90949 0.5,-4.86801 0.5,-5.875 0,-5.03504 -1.417319,-8.34979 -4.253906,-9.94532 -2.669728,-1.611694 -6.507934,-2.175999 -11.513672,-1.691403 -6.674321,0.646133 -11.597278,2.562033 -14.767578,5.746093 -3.003443,3.02406 -5.087853,8.18817 -6.2558592,15.49414 -4.338309,25.73894 -6.5078126,49.18297 -6.5078126,70.33008 0,29.05927 4.0876297,51.82351 12.2636718,68.29492 8.17604,16.32759 20.272651,23.71673 36.291016,22.16602 14.182927,-1.37303 27.532526,-8.77933 40.046875,-22.21875 12.681201,-13.45555 24.027581,-33.18315 34.039061,-59.1836 1.00115,22.48876 5.17192,40.13934 12.51367,52.95117 7.34176,12.66806 18.35556,18.29063 33.03907,16.86915 16.01836,-1.55071 32.2026,-10.16658 48.55468,-25.84766 16.51894,-15.84111 30.61877,-35.04384 42.29883,-57.60938 8.99029,0.72912 18.96517,0.61862 29.9082,-0.31445 -4.28715,8.48366 -6.43164,17.39704 -6.43164,26.74024 0,14.24191 4.83788,24.99481 14.51563,32.25781 9.67777,7.26302 23.2768,10.04569 40.79687,8.34961 12.84809,-1.2438 24.86153,-5.13863 36.04102,-11.6875 2.68919,-1.55598 5.22237,-3.12647 7.62109,-4.71094 2.35086,-0.74454 4.61528,-2.15184 6.79102,-4.23828 1.2164,-1.13736 2.39692,-2.29028 3.57226,-3.44727 3.14646,-2.64926 5.91838,-5.33431 8.29688,-8.05859 0.91743,-1.00467 1.6859,-2.1166 2.33789,-3.3125 0.78049,-0.91145 1.55299,-1.82564 2.31055,-2.74805 5.17259,-6.1112 10.34693,-13.66203 15.51953,-22.65039 2.33601,2.07559 4.83807,4.56819 7.50781,7.47461 2.66971,2.76255 4.83922,5.71607 6.50781,8.86328 1.83541,3.13104 2.83703,6.55906 3.00391,10.28321 -1.50172,0.002 -3.75438,0.005 -6.75781,0.008 -2.83659,-0.15697 -5.3406,-0.13187 -7.50977,0.0781 -6.17374,0.59767 -10.84532,2.41682 -14.01562,5.45703 -3.17031,3.04019 -4.75586,6.43156 -4.75586,10.17188 0,4.31572 2.25263,7.98159 6.75781,10.99805 4.67202,3.00028 11.34684,4.0802 20.02344,3.24023 9.1772,-0.88843 17.10303,-4.10138 23.77734,-9.63867 11.17949,-1.36997 20.52264,-4.00081 28.03125,-7.89258 4.74456,-2.50459 9.61765,-6.10036 14.61719,-10.77344 1.45108,1.5695 3.06225,3.02338 4.83984,4.35743 9.67778,7.263 23.2768,10.04764 40.79688,8.35156 12.84805,-1.2438 24.86152,-5.14058 36.04101,-11.68946 8.33642,-4.82347 15.26272,-9.78587 20.80664,-14.88281 0.66772,1.2397 1.36586,2.44649 2.11328,3.60156 7.17492,10.81405 18.10557,15.50939 32.78907,14.08789 10.67891,-1.0338 20.18837,-4.39881 28.53125,-10.09765 2.94408,-1.97718 5.80352,-4.12102 8.58789,-6.41016 0.77318,1.04127 1.61009,2.03103 2.52734,2.95899 6.00686,5.89208 13.76447,8.37776 23.27539,7.45703 12.68121,-1.22765 21.60866,-8.27786 26.78125,-21.15039 l -0.25,3.47851 c 0,5.32274 1.33417,9.07655 4.00391,11.26367 2.83658,2.02713 7.09245,2.76601 12.76562,2.2168 5.84005,-0.56536 10.01082,-2.12003 12.51367,-4.66406 2.66974,-2.70403 4.00586,-6.78925 4.00586,-12.25586 0,-9.92617 0.49886,-18.89324 1.5,-26.90234 1.00115,-8.15296 2.42042,-16.70717 4.25586,-25.66016 1.66857,-8.36144 2.50196,-14.19518 2.50196,-17.50391 0,-3.16487 -1.08282,-5.50518 -3.25196,-7.02148 -2.16916,-1.51629 -5.25714,-2.08104 -9.26172,-1.69336 -3.83775,0.37153 -7.34143,0.99853 -10.51171,1.88086 -0.8343,-3.08411 -1.91904,-5.13659 -3.25391,-6.1582 -1.16802,-1.18167 -3.58696,-1.59561 -7.25781,-1.24024 -11.51322,1.11458 -22.44192,5.33672 -32.78711,12.66797 -10.17835,7.17123 -18.35556,16.23597 -24.5293,27.19141 -6.17374,10.81156 -9.25976,21.97183 -9.25976,33.48047 0,0.18555 0.008,0.36471 0.01,0.54882 -2.80651,2.69118 -5.35782,4.93038 -7.62109,6.66016 -5.1726,3.80947 -11.17834,6.0467 -18.01953,6.70898 -4.3383,0.41999 -7.84394,-0.46521 -10.51368,-2.65234 -2.6697,-2.33098 -4.58783,-6.38872 -5.75586,-12.17383 18.85495,-23.97939 33.78814,-47.79352 44.80079,-71.44531 11.01261,-23.651787 16.51953,-44.037182 16.51953,-61.15625 0,-11.940208 -2.33579,-20.849128 -7.00782,-26.726562 -3.94199,-5.282782 -9.22482,-7.958674 -15.8496,-8.025391 z m -7.58008,22.009765 c 4.10627,0.243096 6.16015,5.488416 6.16015,15.738282 0,13.954192 -3.50369,29.758458 -10.51171,47.412106 -7.00804,17.50981 -16.4363,35.2542 -28.28321,53.23243 0.3337,-16.28823 2.33693,-33.45793 6.00781,-51.50782 3.67089,-18.049854 7.9248,-33.278847 12.76368,-45.687498 4.8389,-12.408626 9.17789,-18.798398 13.01562,-19.169921 0.292,-0.02827 0.57391,-0.03378 0.84766,-0.01758 z M 245.3125,100.24609 c 2.62802,0.0603 4.74555,1.27078 6.35156,3.63282 1.83544,2.55561 2.75196,6.85445 2.75196,12.89648 0,10.50162 -3.25231,24.12322 -9.75977,40.86523 -10.51204,-5.74363 -15.76953,-15.66365 -15.76953,-29.76171 0,-8.34376 1.41927,-14.883 4.25586,-19.61719 2.83658,-4.87805 6.50657,-7.53652 11.01172,-7.97266 0.39629,-0.0384 0.78277,-0.0516 1.1582,-0.043 z m 493.18359,33.10743 -4.75586,22.25586 c -3.00343,14.67654 -6.42399,25.00434 -10.26171,30.98632 -3.83776,5.98199 -8.0936,9.20006 -12.76563,9.65235 -3.17028,0.30691 -5.75549,-0.52229 -7.75781,-2.48633 -1.83541,-2.12403 -2.75391,-5.34442 -2.75391,-9.66016 0,-8.05604 1.75186,-15.84875 5.25586,-23.38086 3.50401,-7.53211 8.17558,-13.74001 14.01563,-18.62109 5.84001,-5.02495 12.18224,-7.93994 19.02343,-8.74609 z m -194.125,20.34375 c 2.48201,-0.0515 4.45209,0.6074 5.91211,1.97656 1.83544,1.40475 2.75391,3.47373 2.75391,6.20703 0,5.32273 -2.8366,10.27238 -8.50977,14.84961 -5.67319,4.57723 -13.43272,8.34934 -23.27734,11.31641 v -0.43165 c 0,-8.77533 2.08636,-16.45716 6.25781,-23.04687 4.33833,-6.60586 9.59384,-10.20702 15.76758,-10.80469 0.37543,-0.0363 0.74113,-0.059 1.0957,-0.0664 z m -205.31445,19.87695 c 2.48201,-0.0515 4.45404,0.6074 5.91406,1.97656 1.83544,1.40475 2.75196,3.47373 2.75196,6.20703 0,5.32274 -2.8366,10.27238 -8.50977,14.84961 -5.67317,4.57723 -13.43272,8.34936 -23.27734,11.31641 v -0.43164 c 0,-8.77533 2.08636,-16.45912 6.25781,-23.04883 4.3383,-6.60586 9.59384,-10.20702 15.76758,-10.80469 0.37543,-0.0363 0.74113,-0.0571 1.0957,-0.0644 z"
                 style="font-style:normal;font-variant:normal;font-weight:normal;font-stretch:normal;font-size:57.09355545px;font-family:Pacifico;-inkscape-font-specification:'Pacifico, Normal';font-variant-ligatures:normal;font-variant-caps:normal;font-variant-numeric:normal;font-feature-settings:normal;text-align:start;writing-mode:lr-tb;text-anchor:start;fill:url(#linearGradient932);fill-opacity:1;stroke:#000000;stroke-width:5.80993986;stroke-opacity:1" />
            </g>
          </g>
          <g
             id="g896"
             style="fill:url(#linearGradient946)">
            <g
               id="g5225"
               style="fill:url(#linearGradient5573)"
               transform="matrix(1.1598815,-0.11228603,0,1,-6.4762888,10.275736)">
              <path
                 style="font-style:normal;font-variant:normal;font-weight:normal;font-stretch:normal;font-size:57.09355545px;font-family:Pacifico;-inkscape-font-specification:'Pacifico, Normal';font-variant-ligatures:normal;font-variant-caps:normal;font-variant-numeric:normal;font-feature-settings:normal;text-align:start;writing-mode:lr-tb;text-anchor:start;fill:url(#linearGradient888);fill-opacity:1;stroke:#000000;stroke-width:5.80993986;stroke-opacity:1"
                 d="m 665.47852,18.654297 c -0.9464,-0.0095 -1.92073,0.03394 -2.92188,0.130859 -14.18295,1.373026 -26.44777,10.616919 -36.79297,27.730469 -10.17831,17.09742 -17.93592,37.125253 -23.27539,60.083985 -5.1726,22.94255 -7.75976,43.18959 -7.75976,60.74023 0,6.83082 0.49106,13.14082 1.4707,18.93164 -6.26619,6.43871 -13.47107,12.00781 -21.63867,16.6836 -9.5109,5.38032 -18.02069,8.43326 -25.5293,9.16015 -11.68006,1.13073 -19.60589,-1.41138 -23.77734,-7.625 19.68924,-6.07797 33.62277,-13.03642 41.79882,-20.87695 8.34288,-8.00055 12.51368,-16.96445 12.51368,-26.89062 0,-8.48761 -2.91975,-14.89293 -8.75977,-19.21875 -5.84004,-4.46965 -13.5996,-6.23767 -23.27734,-5.30079 -10.84577,1.04998 -20.60658,4.5137 -29.28321,10.38868 -8.50975,5.85885 -15.18456,13.3376 -20.02343,22.4375 -4.83891,8.95605 -7.25782,18.39802 -7.25782,28.32422 0,3.15508 0.2516,6.12883 0.72657,8.9414 -7.1823,7.13716 -13.66197,11.95989 -19.43164,14.44727 0.33372,-2.62174 0.50195,-4.65126 0.50195,-6.08985 0,-5.03501 -1.41928,-9.50117 -4.25586,-13.39843 -2.66974,-4.05729 -6.67423,-8.84988 -12.01367,-14.375 -3.67088,-3.5288 -6.42433,-6.49842 -8.25977,-8.91016 -1.66856,-2.4279 -2.50195,-4.72102 -2.50195,-6.87891 0,-3.59644 1.50047,-8.12804 4.50391,-13.59765 1.16799,-1.98324 2.08648,-3.94414 2.7539,-5.87891 0.66742,-1.93475 1,-3.33217 1,-4.19531 0,-1.58244 -0.91654,-2.64589 -2.75195,-3.1875 -1.83544,-0.54161 -5.0897,-0.5851 -9.76172,-0.13281 -10.0115,0.96919 -16.60121,4.77154 -19.77149,11.4082 -3.67085,7.83596 -7.42594,15.46423 -11.26367,22.88476 -3.83775,7.2767 -7.17513,13.13947 -10.01172,17.58594 -3.63005,5.26949 -8.65998,11.7462 -15.00976,19.36328 -4.89856,4.28538 -10.28319,8.12019 -16.16992,11.49024 -9.51093,5.38032 -18.02069,8.43521 -25.5293,9.16211 -11.68006,1.13072 -19.60589,-1.41138 -23.77734,-7.625 19.68924,-6.07798 33.62081,-13.03643 41.79687,-20.87696 8.34291,-8.00055 12.51563,-16.96445 12.51563,-26.89062 0,-8.48761 -2.91972,-14.89488 -8.75977,-19.2207 -5.84002,-4.46965 -13.59957,-6.23572 -23.27734,-5.29883 -10.84577,1.04996 -20.60661,4.51174 -29.28321,10.38672 -0.84324,0.58056 -1.6635,1.18254 -2.4707,1.79492 -1.69661,-1.01206 -4.26994,-1.35744 -7.74023,-1.02149 -11.51322,1.11458 -21.52541,1.43575 -30.03516,0.96485 8.17603,-20.64388 12.26367,-39.09369 12.26367,-55.34961 0,-11.508641 -3.16918,-20.263955 -9.50976,-26.267579 -5.40203,-5.267308 -12.52956,-7.834267 -21.38086,-7.701172 -1.26447,0.01901 -2.56358,0.09343 -3.89844,0.222656 -8.67663,0.839969 -16.60246,3.548221 -23.77734,8.126953 -7.00804,4.562606 -12.59808,11.002357 -16.76954,19.318362 -4.00457,8.15599 -6.00585,17.91646 -6.00585,29.28125 0,11.36476 2.58521,21.18442 7.75781,29.45898 5.17259,8.13074 12.849,14.43674 23.02734,18.91797 -8.17606,16.32817 -17.18663,30.21917 -27.03125,41.67383 -9.84461,11.31078 -18.77206,17.35355 -26.78125,18.1289 -6.84118,0.66233 -12.0967,-1.27475 -15.76758,-5.81054 -3.50401,-4.6958 -5.9249,-11.7264 -7.25976,-21.0918 -1.16801,-9.38153 -1.75196,-22.05521 -1.75196,-38.02344 0,-23.44882 2.33775,-47.12428 7.00977,-71.02539 0.33372,-1.32702 0.5,-3.14162 0.5,-5.443356 0,-3.884145 -1.25104,-6.639716 -3.75391,-8.267578 -2.33601,-1.787865 -6.09107,-2.432391 -11.26367,-1.931641 -6.17374,0.597669 -11.0967,2.369627 -14.76758,5.314453 -3.50401,2.784799 -5.92295,7.550202 -7.25781,14.296872 -5.67317,29.32077 -12.5974,54.80614 -20.77344,76.45703 -8.176023,21.50703 -16.436397,37.98828 -24.779293,49.44141 -8.176043,11.29313 -15.18341,17.22175 -21.023438,17.78711 -6.507462,0.62998 -11.679847,-4.1199 -15.517578,-14.25 -3.837734,-10.13009 -5.755859,-24.83249 -5.755859,-44.10937 0,-20.71555 2.502075,-46.0617 7.507812,-76.03711 0.333719,-2.90949 0.5,-4.86801 0.5,-5.875 0,-5.03504 -1.417319,-8.34979 -4.253906,-9.94532 -2.669728,-1.611694 -6.507934,-2.175999 -11.513672,-1.691403 -6.674321,0.646133 -11.597278,2.562033 -14.767578,5.746093 -3.003443,3.02406 -5.087853,8.18817 -6.2558592,15.49414 -4.338309,25.73894 -6.5078126,49.18297 -6.5078126,70.33008 0,29.05927 4.0876297,51.82351 12.2636718,68.29492 8.17604,16.32759 20.272651,23.71673 36.291016,22.16602 14.182927,-1.37303 27.532526,-8.77933 40.046875,-22.21875 12.681201,-13.45555 24.027581,-33.18315 34.039061,-59.1836 1.00115,22.48876 5.17192,40.13934 12.51367,52.95117 7.34176,12.66806 18.35556,18.29063 33.03907,16.86915 16.01836,-1.55071 32.2026,-10.16658 48.55468,-25.84766 16.51894,-15.84111 30.61877,-35.04384 42.29883,-57.60938 8.99029,0.72912 18.96517,0.61862 29.9082,-0.31445 -4.28715,8.48366 -6.43164,17.39704 -6.43164,26.74024 0,14.24191 4.83788,24.99481 14.51563,32.25781 9.67777,7.26302 23.2768,10.04569 40.79687,8.34961 12.84809,-1.2438 24.86153,-5.13863 36.04102,-11.6875 2.68919,-1.55598 5.22237,-3.12647 7.62109,-4.71094 2.35086,-0.74454 4.61528,-2.15184 6.79102,-4.23828 1.2164,-1.13736 2.39692,-2.29028 3.57226,-3.44727 3.14646,-2.64926 5.91838,-5.33431 8.29688,-8.05859 0.91743,-1.00467 1.6859,-2.1166 2.33789,-3.3125 0.78049,-0.91145 1.55299,-1.82564 2.31055,-2.74805 5.17259,-6.1112 10.34693,-13.66203 15.51953,-22.65039 2.33601,2.07559 4.83807,4.56819 7.50781,7.47461 2.66971,2.76255 4.83922,5.71607 6.50781,8.86328 1.83541,3.13104 2.83703,6.55906 3.00391,10.28321 -1.50172,0.002 -3.75438,0.005 -6.75781,0.008 -2.83659,-0.15697 -5.3406,-0.13187 -7.50977,0.0781 -6.17374,0.59767 -10.84532,2.41682 -14.01562,5.45703 -3.17031,3.04019 -4.75586,6.43156 -4.75586,10.17188 0,4.31572 2.25263,7.98159 6.75781,10.99805 4.67202,3.00028 11.34684,4.0802 20.02344,3.24023 9.1772,-0.88843 17.10303,-4.10138 23.77734,-9.63867 11.17949,-1.36997 20.52264,-4.00081 28.03125,-7.89258 4.74456,-2.50459 9.61765,-6.10036 14.61719,-10.77344 1.45108,1.5695 3.06225,3.02338 4.83984,4.35743 9.67778,7.263 23.2768,10.04764 40.79688,8.35156 12.84805,-1.2438 24.86152,-5.14058 36.04101,-11.68946 8.33642,-4.82347 15.26272,-9.78587 20.80664,-14.88281 0.66772,1.2397 1.36586,2.44649 2.11328,3.60156 7.17492,10.81405 18.10557,15.50939 32.78907,14.08789 10.67891,-1.0338 20.18837,-4.39881 28.53125,-10.09765 2.94408,-1.97718 5.80352,-4.12102 8.58789,-6.41016 0.77318,1.04127 1.61009,2.03103 2.52734,2.95899 6.00686,5.89208 13.76447,8.37776 23.27539,7.45703 12.68121,-1.22765 21.60866,-8.27786 26.78125,-21.15039 l -0.25,3.47851 c 0,5.32274 1.33417,9.07655 4.00391,11.26367 2.83658,2.02713 7.09245,2.76601 12.76562,2.2168 5.84005,-0.56536 10.01082,-2.12003 12.51367,-4.66406 2.66974,-2.70403 4.00586,-6.78925 4.00586,-12.25586 0,-9.92617 0.49886,-18.89324 1.5,-26.90234 1.00115,-8.15296 2.42042,-16.70717 4.25586,-25.66016 1.66857,-8.36144 2.50196,-14.19518 2.50196,-17.50391 0,-3.16487 -1.08282,-5.50518 -3.25196,-7.02148 -2.16916,-1.51629 -5.25714,-2.08104 -9.26172,-1.69336 -3.83775,0.37153 -7.34143,0.99853 -10.51171,1.88086 -0.8343,-3.08411 -1.91904,-5.13659 -3.25391,-6.1582 -1.16802,-1.18167 -3.58696,-1.59561 -7.25781,-1.24024 -11.51322,1.11458 -22.44192,5.33672 -32.78711,12.66797 -10.17835,7.17123 -18.35556,16.23597 -24.5293,27.19141 -6.17374,10.81156 -9.25976,21.97183 -9.25976,33.48047 0,0.18555 0.008,0.36471 0.01,0.54882 -2.80651,2.69118 -5.35782,4.93038 -7.62109,6.66016 -5.1726,3.80947 -11.17834,6.0467 -18.01953,6.70898 -4.3383,0.41999 -7.84394,-0.46521 -10.51368,-2.65234 -2.6697,-2.33098 -4.58783,-6.38872 -5.75586,-12.17383 18.85495,-23.97939 33.78814,-47.79352 44.80079,-71.44531 11.01261,-23.651787 16.51953,-44.037182 16.51953,-61.15625 0,-11.940208 -2.33579,-20.849128 -7.00782,-26.726562 -3.94199,-5.282782 -9.22482,-7.958674 -15.8496,-8.025391 z m -7.58008,22.009765 c 4.10627,0.243096 6.16015,5.488416 6.16015,15.738282 0,13.954192 -3.50369,29.758458 -10.51171,47.412106 -7.00804,17.50981 -16.4363,35.2542 -28.28321,53.23243 0.3337,-16.28823 2.33693,-33.45793 6.00781,-51.50782 3.67089,-18.049854 7.9248,-33.278847 12.76368,-45.687498 4.8389,-12.408626 9.17789,-18.798398 13.01562,-19.169921 0.292,-0.02827 0.57391,-0.03378 0.84766,-0.01758 z M 245.3125,100.24609 c 2.62802,0.0603 4.74555,1.27078 6.35156,3.63282 1.83544,2.55561 2.75196,6.85445 2.75196,12.89648 0,10.50162 -3.25231,24.12322 -9.75977,40.86523 -10.51204,-5.74363 -15.76953,-15.66365 -15.76953,-29.76171 0,-8.34376 1.41927,-14.883 4.25586,-19.61719 2.83658,-4.87805 6.50657,-7.53652 11.01172,-7.97266 0.39629,-0.0384 0.78277,-0.0516 1.1582,-0.043 z m 493.18359,33.10743 -4.75586,22.25586 c -3.00343,14.67654 -6.42399,25.00434 -10.26171,30.98632 -3.83776,5.98199 -8.0936,9.20006 -12.76563,9.65235 -3.17028,0.30691 -5.75549,-0.52229 -7.75781,-2.48633 -1.83541,-2.12403 -2.75391,-5.34442 -2.75391,-9.66016 0,-8.05604 1.75186,-15.84875 5.25586,-23.38086 3.50401,-7.53211 8.17558,-13.74001 14.01563,-18.62109 5.84001,-5.02495 12.18224,-7.93994 19.02343,-8.74609 z m -194.125,20.34375 c 2.48201,-0.0515 4.45209,0.6074 5.91211,1.97656 1.83544,1.40475 2.75391,3.47373 2.75391,6.20703 0,5.32273 -2.8366,10.27238 -8.50977,14.84961 -5.67319,4.57723 -13.43272,8.34934 -23.27734,11.31641 v -0.43165 c 0,-8.77533 2.08636,-16.45716 6.25781,-23.04687 4.33833,-6.60586 9.59384,-10.20702 15.76758,-10.80469 0.37543,-0.0363 0.74113,-0.059 1.0957,-0.0664 z m -205.31445,19.87695 c 2.48201,-0.0515 4.45404,0.6074 5.91406,1.97656 1.83544,1.40475 2.75196,3.47373 2.75196,6.20703 0,5.32274 -2.8366,10.27238 -8.50977,14.84961 -5.67317,4.57723 -13.43272,8.34936 -23.27734,11.31641 v -0.43164 c 0,-8.77533 2.08636,-16.45912 6.25781,-23.04883 4.3383,-6.60586 9.59384,-10.20702 15.76758,-10.80469 0.37543,-0.0363 0.74113,-0.0571 1.0957,-0.0644 z"
                 transform="matrix(0.22811238,0.02561383,0,0.26458333,54.75414,144.847)"
                 id="path5178"
                 inkscape:connector-curvature="0" />
            </g>
          </g>
        </g>
      </g>
    </g>
  </g>
</svg>
