<?xml version="1.0" encoding="UTF-8" standalone="no"?>
<!-- Created with Inkscape (http://www.inkscape.org/) -->

<svg
   xmlns:dc="http://purl.org/dc/elements/1.1/"
   xmlns:cc="http://creativecommons.org/ns#"
   xmlns:rdf="http://www.w3.org/1999/02/22-rdf-syntax-ns#"
   xmlns:svg="http://www.w3.org/2000/svg"
   xmlns="http://www.w3.org/2000/svg"
   xmlns:xlink="http://www.w3.org/1999/xlink"
   xmlns:sodipodi="http://sodipodi.sourceforge.net/DTD/sodipodi-0.dtd"
   xmlns:inkscape="http://www.inkscape.org/namespaces/inkscape"
   width="204.30034mm"
   height="71.121269mm"
   viewBox="0 0 204.30034 71.121269"
   version="1.1"
   id="svg4629"
   sodipodi:docname="wesele3.svg"
   inkscape:version="0.92.2 (5c3e80d, 2017-08-06)">
  <defs
     id="defs4623">
    <linearGradient
       inkscape:collect="always"
       id="linearGradient5203">
      <stop
         style="stop-color:#00ff00;stop-opacity:1;"
         offset="0"
         id="stop5199" />
      <stop
         style="stop-color:#ff00ff;stop-opacity:1"
         offset="1"
         id="stop5201" />
    </linearGradient>
    <linearGradient
       inkscape:collect="always"
       xlink:href="#linearGradient5203"
       id="linearGradient5205"
       x1="54.617561"
       y1="196.64732"
       x2="231.32143"
       y2="197.40327"
       gradientUnits="userSpaceOnUse" />
    <linearGradient
       inkscape:collect="always"
       xlink:href="#linearGradient5203"
       id="linearGradient5207"
       gradientUnits="userSpaceOnUse"
       x1="54.617561"
       y1="196.64732"
       x2="231.32143"
       y2="197.40327" />
    <linearGradient
       inkscape:collect="always"
       xlink:href="#linearGradient5203"
       id="linearGradient5209"
       gradientUnits="userSpaceOnUse"
       x1="54.617561"
       y1="196.64732"
       x2="231.32143"
       y2="197.40327" />
    <linearGradient
       inkscape:collect="always"
       xlink:href="#linearGradient5203"
       id="linearGradient5211"
       gradientUnits="userSpaceOnUse"
       x1="54.617561"
       y1="196.64732"
       x2="231.32143"
       y2="197.40327" />
    <linearGradient
       inkscape:collect="always"
       xlink:href="#linearGradient5203"
       id="linearGradient5213"
       gradientUnits="userSpaceOnUse"
       x1="54.617561"
       y1="196.64732"
       x2="231.32143"
       y2="197.40327" />
    <linearGradient
       inkscape:collect="always"
       xlink:href="#linearGradient5203"
       id="linearGradient5215"
       gradientUnits="userSpaceOnUse"
       x1="54.617561"
       y1="196.64732"
       x2="231.32143"
       y2="197.40327" />
    <linearGradient
       inkscape:collect="always"
       xlink:href="#linearGradient5203"
       id="linearGradient5217"
       gradientUnits="userSpaceOnUse"
       x1="54.617561"
       y1="196.64732"
       x2="231.32143"
       y2="197.40327" />
    <linearGradient
       inkscape:collect="always"
       xlink:href="#linearGradient5203"
       id="linearGradient5227"
       gradientUnits="userSpaceOnUse"
       x1="54.617561"
       y1="196.64732"
       x2="231.32143"
       y2="197.40327" />
    <linearGradient
       inkscape:collect="always"
       xlink:href="#linearGradient5203"
       id="linearGradient5229"
       gradientUnits="userSpaceOnUse"
       x1="54.617561"
       y1="196.64732"
       x2="231.32143"
       y2="197.40327" />
  </defs>
  <sodipodi:namedview
     id="base"
     pagecolor="#ffffff"
     bordercolor="#666666"
     borderopacity="1.0"
     inkscape:pageopacity="0.0"
     inkscape:pageshadow="2"
     inkscape:zoom="0.98994949"
     inkscape:cx="371.81614"
     inkscape:cy="176.05187"
     inkscape:document-units="mm"
     inkscape:current-layer="g5197"
     showgrid="false"
     fit-margin-top="0"
     fit-margin-left="0"
     fit-margin-right="0"
     fit-margin-bottom="0"
     inkscape:window-width="1600"
     inkscape:window-height="821"
     inkscape:window-x="-9"
     inkscape:window-y="-9"
     inkscape:window-maximized="1" />
  <metadata
     id="metadata4626">
    <rdf:RDF>
      <cc:Work
         rdf:about="">
        <dc:format>image/svg+xml</dc:format>
        <dc:type
           rdf:resource="http://purl.org/dc/dcmitype/StillImage" />
        <dc:title></dc:title>
      </cc:Work>
    </rdf:RDF>
  </metadata>
  <g
     inkscape:label="Layer 1"
     inkscape:groupmode="layer"
     id="layer1"
     transform="translate(-54.640036,-158.95565)">
    <g
       aria-label="Wesela"
       style="font-style:normal;font-variant:normal;font-weight:normal;font-stretch:normal;font-size:57.09355545px;line-height:1.25;font-family:Pacifico;-inkscape-font-specification:'Pacifico, Normal';font-variant-ligatures:normal;font-variant-caps:normal;font-variant-numeric:normal;font-feature-settings:normal;text-align:start;letter-spacing:0px;word-spacing:0px;writing-mode:lr-tb;text-anchor:start;fill:#d42aff;fill-opacity:1;stroke:#000000;stroke-width:1.42733955;stroke-opacity:1"
       id="text5176">
      <g
         id="g5197"
         style="fill:url(#linearGradient5205);fill-opacity:1">
        <g
           id="g5225"
           style="fill:url(#linearGradient5229)"
           transform="matrix(1.1598815,-0.11228603,0,1,-8.8682787,16.037097)">
          <path
             inkscape:connector-curvature="0"
             d="m 123.8088,195.7915 q 1.31315,0 1.88408,0.57094 0.62803,0.57093 0.62803,1.48443 0,1.48443 -0.91349,2.6263 -0.85641,1.14187 -2.74049,1.19897 -4.5104,0.0571 -8.10729,-0.68513 -3.99655,8.50694 -9.64881,14.15921 -5.595169,5.59517 -11.07615,5.59517 -5.024233,0 -7.53635,-5.30971 -2.512116,-5.36679 -2.854677,-14.33048 -3.425614,9.93428 -7.764724,14.78723 -4.282017,4.85296 -9.134969,4.85296 -5.480981,0 -8.278565,-6.79414 -2.797585,-6.85122 -2.797585,-18.38412 0,-8.39276 1.484433,-18.44122 0.399655,-2.85468 1.427339,-3.93946 1.084777,-1.14187 3.36852,-1.14187 1.712806,0 2.626303,0.74222 0.970591,0.74221 0.970591,2.74049 0,0.39965 -0.114188,1.54153 -1.712806,11.70417 -1.712806,19.92565 0,7.65053 1.313152,11.81836 1.313151,4.16783 3.5398,4.16783 1.998274,0 4.795859,-4.16783 2.854677,-4.22492 5.652262,-12.44639 2.797584,-8.27857 4.738765,-19.69728 0.456748,-2.6263 1.655713,-3.59689 1.256058,-1.02769 3.36852,-1.02769 1.7699,0 2.56921,0.79931 0.856403,0.74222 0.856403,2.28374 0,0.9135 -0.114187,1.42734 -1.59862,9.30625 -1.59862,18.6125 0,6.33739 0.399655,10.10556 0.456749,3.76818 1.655713,5.76645 1.256058,1.94118 3.596894,1.94118 2.740491,0 6.109009,-4.11073 3.36852,-4.16783 6.16611,-10.33394 -3.48271,-2.16955 -5.25261,-5.59517 -1.7699,-3.4827 -1.7699,-7.99309 0,-4.5104 1.37024,-7.59345 1.42734,-3.14014 3.82527,-4.68167 2.45502,-1.54152 5.42389,-1.54152 3.65399,0 5.76645,2.6263 2.16955,2.6263 2.16955,7.19379 0,6.45157 -2.79758,14.33048 2.91177,0.51384 6.85123,0.51384 z m -16.8426,-11.24743 q 0,5.59517 3.59689,8.27857 2.22665,-6.39448 2.22665,-10.56231 0,-2.39793 -0.62803,-3.48271 -0.62803,-1.14187 -1.71281,-1.14187 -1.54152,0 -2.51211,1.82699 -0.97059,1.7699 -0.97059,5.08133 z"
             style="font-style:normal;font-variant:normal;font-weight:normal;font-stretch:normal;font-size:57.09355545px;font-family:Pacifico;-inkscape-font-specification:'Pacifico, Normal';font-variant-ligatures:normal;font-variant-caps:normal;font-variant-numeric:normal;font-feature-settings:normal;text-align:start;writing-mode:lr-tb;text-anchor:start;fill:url(#linearGradient5207);fill-opacity:1;stroke:#000000;stroke-width:1.42733955;stroke-opacity:1"
             id="path5178" />
          <path
             inkscape:connector-curvature="0"
             d="m 146.23497,207.72405 q 0.74221,0 1.14187,0.68513 0.45675,0.68512 0.45675,1.88408 0,2.28375 -1.08478,3.5398 -2.11246,2.56921 -5.99482,4.73877 -3.82527,2.16956 -8.22148,2.16956 -5.99482,0 -9.30625,-3.25434 -3.31142,-3.25433 -3.31142,-8.90659 0,-3.93946 1.65571,-7.30798 1.65571,-3.42561 4.56749,-5.42389 2.96886,-1.99827 6.67994,-1.99827 3.31143,0 5.3097,1.99827 1.99828,1.94119 1.99828,5.30971 0,3.93945 -2.85468,6.79413 -2.79759,2.79758 -9.53463,4.4533 1.42734,2.6263 5.42389,2.6263 2.56921,0 5.82355,-1.7699 3.31142,-1.82699 5.70935,-4.73877 0.68512,-0.79931 1.54153,-0.79931 z m -14.38758,-8.27856 q -2.11246,0 -3.59689,2.45502 -1.42734,2.45502 -1.42734,5.93773 v 0.11419 q 3.36852,-0.79931 5.3097,-2.39793 1.94118,-1.59862 1.94118,-3.71108 0,-1.08478 -0.62803,-1.71281 -0.57094,-0.68512 -1.59862,-0.68512 z"
             style="font-style:normal;font-variant:normal;font-weight:normal;font-stretch:normal;font-size:57.09355545px;font-family:Pacifico;-inkscape-font-specification:'Pacifico, Normal';font-variant-ligatures:normal;font-variant-caps:normal;font-variant-numeric:normal;font-feature-settings:normal;text-align:start;writing-mode:lr-tb;text-anchor:start;fill:url(#linearGradient5209);fill-opacity:1;stroke:#000000;stroke-width:1.42733955;stroke-opacity:1"
             id="path5180" />
          <path
             inkscape:connector-curvature="0"
             d="m 153.80432,221.99744 q -2.96886,0 -4.56748,-1.37024 -1.54153,-1.37025 -1.54153,-3.08305 0,-1.48444 1.08478,-2.56921 1.08478,-1.08478 3.19724,-1.08478 0.74222,0 1.71281,0.17128 1.02768,0.11419 1.54152,0.17128 -0.0571,-1.48443 -0.68512,-2.79758 -0.57094,-1.31316 -1.48443,-2.51212 -0.9135,-1.25606 -1.71281,-2.16956 -1.7699,3.36852 -3.5398,5.59517 -1.71281,2.22665 -3.76817,4.22493 -1.02769,1.02768 -2.16956,1.02768 -0.9135,0 -1.48443,-0.62803 -0.57094,-0.68512 -0.57094,-1.65571 0,-1.14187 0.79931,-2.11246 l 0.74222,-0.9135 q 3.14014,-3.88236 4.73876,-6.39448 0.97059,-1.65571 2.28375,-4.3962 1.31315,-2.79759 2.56921,-5.76645 1.08477,-2.51212 4.51039,-2.51212 1.59862,0 2.22665,0.28547 0.62802,0.28547 0.62802,0.9135 0,0.34256 -0.22837,1.08477 -0.22837,0.74222 -0.62803,1.48444 -1.02768,2.05536 -1.02768,3.4827 0,0.85641 0.57093,1.88409 0.62803,1.02768 1.88409,2.56921 1.82699,2.39793 2.74049,4.11074 0.97059,1.65571 0.97059,3.65398 0,0.57094 -0.11419,1.59862 2.79759,-1.08477 6.56576,-5.76645 0.68513,-0.79931 1.54153,-0.79931 0.74221,0 1.14187,0.68513 0.45675,0.68512 0.45675,1.88408 0,2.16956 -1.08478,3.5398 -2.85468,3.53981 -5.48098,4.85296 -2.56921,1.25606 -6.39448,1.37024 -2.28374,1.94118 -5.42389,1.94118 z"
             style="font-style:normal;font-variant:normal;font-weight:normal;font-stretch:normal;font-size:57.09355545px;font-family:Pacifico;-inkscape-font-specification:'Pacifico, Normal';font-variant-ligatures:normal;font-variant-caps:normal;font-variant-numeric:normal;font-feature-settings:normal;text-align:start;writing-mode:lr-tb;text-anchor:start;fill:url(#linearGradient5211);fill-opacity:1;stroke:#000000;stroke-width:1.42733955;stroke-opacity:1"
             id="path5182" />
          <path
             inkscape:connector-curvature="0"
             d="m 193.06952,207.72405 q 0.74222,0 1.14187,0.68513 0.45675,0.68512 0.45675,1.88408 0,2.28375 -1.08477,3.5398 -2.11247,2.56921 -5.99483,4.73877 -3.82527,2.16956 -8.22147,2.16956 -5.99482,0 -9.30625,-3.25434 -3.31143,-3.25433 -3.31143,-8.90659 0,-3.93946 1.65572,-7.30798 1.65571,-3.42561 4.56748,-5.42389 2.96887,-1.99827 6.67995,-1.99827 3.31142,0 5.3097,1.99827 1.99827,1.94119 1.99827,5.30971 0,3.93945 -2.85467,6.79413 -2.79759,2.79758 -9.53463,4.4533 1.42734,2.6263 5.42389,2.6263 2.56921,0 5.82354,-1.7699 3.31143,-1.82699 5.70936,-4.73877 0.68512,-0.79931 1.54152,-0.79931 z m -14.38757,-8.27856 q -2.11246,0 -3.5969,2.45502 -1.42734,2.45502 -1.42734,5.93773 v 0.11419 q 3.36852,-0.79931 5.30971,-2.39793 1.94118,-1.59862 1.94118,-3.71108 0,-1.08478 -0.62803,-1.71281 -0.57094,-0.68512 -1.59862,-0.68512 z"
             style="font-style:normal;font-variant:normal;font-weight:normal;font-stretch:normal;font-size:57.09355545px;font-family:Pacifico;-inkscape-font-specification:'Pacifico, Normal';font-variant-ligatures:normal;font-variant-caps:normal;font-variant-numeric:normal;font-feature-settings:normal;text-align:start;writing-mode:lr-tb;text-anchor:start;fill:url(#linearGradient5213);fill-opacity:1;stroke:#000000;stroke-width:1.42733955;stroke-opacity:1"
             id="path5184" />
          <path
             inkscape:connector-curvature="0"
             d="m 211.65794,207.72405 q 0.74221,0 1.14187,0.68513 0.45675,0.68512 0.45675,1.88408 0,2.28375 -1.08478,3.5398 -2.45502,3.02596 -5.3668,4.96714 -2.85467,1.94119 -6.50866,1.94119 -5.02423,0 -7.47926,-4.56749 -2.39793,-4.56748 -2.39793,-11.81837 0,-6.96541 1.7699,-15.872 1.827,-8.9066 5.3097,-15.30108 3.5398,-6.39447 8.39276,-6.39447 2.74049,0 4.28201,2.56921 1.59862,2.51211 1.59862,7.25088 0,6.79413 -3.76817,15.75782 -3.76818,8.96369 -10.21975,17.75609 0.39966,2.34084 1.31315,3.36852 0.9135,0.97059 2.39793,0.97059 2.34084,0 4.11074,-1.31315 1.7699,-1.37024 4.51039,-4.62458 0.68512,-0.79931 1.54153,-0.79931 z m -7.02251,-35.28381 q -1.31315,0 -2.96887,4.73876 -1.65571,4.73877 -2.91177,11.76127 -1.25606,7.02251 -1.37024,13.47408 4.05364,-6.67994 6.45157,-13.35989 2.39793,-6.73704 2.39793,-12.27511 0,-4.33911 -1.59862,-4.33911 z"
             style="font-style:normal;font-variant:normal;font-weight:normal;font-stretch:normal;font-size:57.09355545px;font-family:Pacifico;-inkscape-font-specification:'Pacifico, Normal';font-variant-ligatures:normal;font-variant-caps:normal;font-variant-numeric:normal;font-feature-settings:normal;text-align:start;writing-mode:lr-tb;text-anchor:start;fill:url(#linearGradient5227);fill-opacity:1;stroke:#000000;stroke-width:1.42733955;stroke-opacity:1"
             id="path5186" />
          <path
             inkscape:connector-curvature="0"
             d="m 214.65,220.74139 q -3.25434,0 -5.3097,-2.56921 -1.99828,-2.56921 -1.99828,-6.73704 0,-4.56749 2.11246,-8.62113 2.11246,-4.11074 5.59517,-6.56576 3.5398,-2.51212 7.47926,-2.51212 1.25605,0 1.65571,0.51385 0.45675,0.45674 0.74222,1.7128 1.08477,-0.22837 2.39793,-0.22837 1.37024,0 2.11246,0.68512 0.74221,0.68512 0.74221,1.94118 0,1.31315 -0.57093,4.56749 -0.62803,3.4827 -0.97059,6.67994 -0.34256,3.14015 -0.34256,7.0796 0,2.16956 -0.9135,3.14015 -0.8564,0.9135 -2.85468,0.9135 -1.94118,0 -2.91177,-0.9135 -0.9135,-0.97059 -0.9135,-3.08305 l 0.0571,-0.9135 q -1.7699,4.91005 -6.10901,4.91005 z m 2.22664,-5.76645 q 1.59862,0 2.91178,-2.22665 1.31315,-2.22665 2.34083,-7.93601 l 1.08478,-5.76645 q -2.34084,0.0571 -4.33911,1.827 -1.99828,1.7128 -3.19724,4.56748 -1.19896,2.85468 -1.19896,6.05192 0,1.71281 0.62802,2.6263 0.68513,0.85641 1.7699,0.85641 z"
             style="font-style:normal;font-variant:normal;font-weight:normal;font-stretch:normal;font-size:57.09355545px;font-family:Pacifico;-inkscape-font-specification:'Pacifico, Normal';font-variant-ligatures:normal;font-variant-caps:normal;font-variant-numeric:normal;font-feature-settings:normal;text-align:start;writing-mode:lr-tb;text-anchor:start;fill:url(#linearGradient5217);fill-opacity:1;stroke:#000000;stroke-width:1.42733955;stroke-opacity:1"
             id="path5188" />
        </g>
      </g>
    </g>
  </g>
</svg>
