<?xml version="1.0" encoding="UTF-8" standalone="no"?>
<!-- Created with Inkscape (http://www.inkscape.org/) -->

<svg
   xmlns:dc="http://purl.org/dc/elements/1.1/"
   xmlns:cc="http://creativecommons.org/ns#"
   xmlns:rdf="http://www.w3.org/1999/02/22-rdf-syntax-ns#"
   xmlns:svg="http://www.w3.org/2000/svg"
   xmlns="http://www.w3.org/2000/svg"
   xmlns:sodipodi="http://sodipodi.sourceforge.net/DTD/sodipodi-0.dtd"
   xmlns:inkscape="http://www.inkscape.org/namespaces/inkscape"
   width="1136"
   height="640"
   viewBox="0 0 1136 640.00002"
   id="svg3465"
   version="1.1"
   inkscape:version="0.91 r13725"
   sodipodi:docname="two_DJ-white.svg">
  <defs
     id="defs3467" />
  <sodipodi:namedview
     id="base"
     pagecolor="#ffffff"
     bordercolor="#666666"
     borderopacity="1.0"
     inkscape:pageopacity="0.0"
     inkscape:pageshadow="2"
     inkscape:zoom="0.7"
     inkscape:cx="327.27573"
     inkscape:cy="324.53775"
     inkscape:document-units="px"
     inkscape:current-layer="g3530"
     showgrid="false"
     units="px"
     inkscape:window-width="1920"
     inkscape:window-height="1017"
     inkscape:window-x="-8"
     inkscape:window-y="-8"
     inkscape:window-maximized="1" />
  <metadata
     id="metadata3470">
    <rdf:RDF>
      <cc:Work
         rdf:about="">
        <dc:format>image/svg+xml</dc:format>
        <dc:type
           rdf:resource="http://purl.org/dc/dcmitype/StillImage" />
        <dc:title></dc:title>
      </cc:Work>
    </rdf:RDF>
  </metadata>
  <g
     inkscape:label="Layer 1"
     inkscape:groupmode="layer"
     id="layer1"
     transform="translate(0,-412.36216)">
    <g
       id="g3530"
       transform="translate(14.142136,5.0507627)">
      <g
         transform="matrix(2.1357932,0,0,2.1357932,456.41753,734.83825)"
         id="g4132">
        <g
           id="g4068">
          <g
             id="g4070" />
        </g>
        <g
           id="g4096" />
        <g
           id="g4098" />
        <g
           id="g4100" />
        <g
           id="g4102" />
        <g
           id="g4104" />
        <g
           id="g4106" />
        <g
           id="g4108" />
        <g
           id="g4110" />
        <g
           id="g4112" />
        <g
           id="g4114" />
        <g
           id="g4116" />
        <g
           id="g4118" />
        <g
           id="g4120" />
        <g
           id="g4122" />
        <g
           id="g4124" />
      </g>
      <g
         id="g3723"
         transform="matrix(0.41686373,0,0,0.41686373,442.83317,715.61555)" />
      <g
         id="g3725"
         transform="matrix(0.41686373,0,0,0.41686373,442.83317,715.61555)" />
      <g
         id="g3727"
         transform="matrix(0.41686373,0,0,0.41686373,442.83317,715.61555)" />
      <g
         id="g3729"
         transform="matrix(0.41686373,0,0,0.41686373,442.83317,715.61555)" />
      <g
         id="g3731"
         transform="matrix(0.41686373,0,0,0.41686373,442.83317,715.61555)" />
      <g
         id="g3733"
         transform="matrix(0.41686373,0,0,0.41686373,442.83317,715.61555)" />
      <g
         id="g3735"
         transform="matrix(0.41686373,0,0,0.41686373,442.83317,715.61555)" />
      <g
         id="g3737"
         transform="matrix(0.41686373,0,0,0.41686373,442.83317,715.61555)" />
      <g
         id="g3739"
         transform="matrix(0.41686373,0,0,0.41686373,442.83317,715.61555)" />
      <g
         id="g3741"
         transform="matrix(0.41686373,0,0,0.41686373,442.83317,715.61555)" />
      <g
         id="g3743"
         transform="matrix(0.41686373,0,0,0.41686373,442.83317,715.61555)" />
      <g
         id="g3745"
         transform="matrix(0.41686373,0,0,0.41686373,442.83317,715.61555)" />
      <g
         id="g3747"
         transform="matrix(0.41686373,0,0,0.41686373,442.83317,715.61555)" />
      <g
         id="g3749"
         transform="matrix(0.41686373,0,0,0.41686373,442.83317,715.61555)" />
      <g
         id="g3751"
         transform="matrix(0.41686373,0,0,0.41686373,442.83317,715.61555)" />
      <g
         id="g4291"
         transform="matrix(1.4898343,0,0,1.4898343,40.815231,778.37864)" />
      <g
         id="g4293"
         transform="matrix(1.4898343,0,0,1.4898343,40.815231,778.37864)" />
      <g
         id="g4295"
         transform="matrix(1.4898343,0,0,1.4898343,40.815231,778.37864)" />
      <g
         id="g4297"
         transform="matrix(1.4898343,0,0,1.4898343,40.815231,778.37864)" />
      <g
         id="g4299"
         transform="matrix(1.4898343,0,0,1.4898343,40.815231,778.37864)" />
      <g
         id="g4301"
         transform="matrix(1.4898343,0,0,1.4898343,40.815231,778.37864)" />
      <g
         id="g4303"
         transform="matrix(1.4898343,0,0,1.4898343,40.815231,778.37864)" />
      <g
         id="g4305"
         transform="matrix(1.4898343,0,0,1.4898343,40.815231,778.37864)" />
      <g
         id="g4307"
         transform="matrix(1.4898343,0,0,1.4898343,40.815231,778.37864)" />
      <g
         id="g4309"
         transform="matrix(1.4898343,0,0,1.4898343,40.815231,778.37864)" />
      <g
         id="g4311"
         transform="matrix(1.4898343,0,0,1.4898343,40.815231,778.37864)" />
      <g
         id="g4313"
         transform="matrix(1.4898343,0,0,1.4898343,40.815231,778.37864)" />
      <g
         id="g4315"
         transform="matrix(1.4898343,0,0,1.4898343,40.815231,778.37864)" />
      <g
         id="g4317"
         transform="matrix(1.4898343,0,0,1.4898343,40.815231,778.37864)" />
      <g
         id="g4319"
         transform="matrix(1.4898343,0,0,1.4898343,40.815231,778.37864)" />
      <g
         id="g4519"
         transform="matrix(5.3428598,0,0,5.3428598,-2399.3747,-3541.4881)"
         style="fill:#ffffff">
        <path
           id="path4072"
           d="m 574.17381,783.84208 c 0.21999,0.28406 0.45493,0.52113 0.69627,0.73899 0.23494,6.82172 -0.41221,17.50069 -0.71976,20.8133 l 19.10681,-0.12174 c 0.0342,-0.35027 0.56384,-6.06992 0.76675,-12.62681 1.20885,1.04654 2.42839,2.08881 3.62871,3.1503 4.03024,3.55396 9.08993,0.006 8.40434,-4.89097 -0.61724,-4.40187 -0.76888,-8.87209 -1.96279,-13.17571 -1.58903,-5.72606 -9.86309,-3.95335 -9.87591,1.21527 -0.11106,-0.11961 -0.22212,-0.2264 -0.32891,-0.34814 -0.21571,-0.24134 -0.43357,-0.43143 -0.65782,-0.61724 -1.51428,-3.82307 -5.38434,-6.37534 -9.69864,-6.02721 -1.61893,0.13028 -3.10972,0.6621 -4.39119,1.48011 -4.09859,-6.29205 -7.10365,-13.09455 -9.21809,-20.40965 -1.8026,-6.2237 -11.18728,-2.61207 -9.39535,3.57959 2.85128,9.86523 7.36422,19.09613 13.64558,27.23991 z"
           inkscape:connector-curvature="0"
           style="fill:#ffffff" />
        <ellipse
           id="ellipse4074"
           ry="1.5890301"
           rx="5.9204187"
           cy="814.73828"
           cx="509.44702"
           style="fill:#ffffff" />
        <ellipse
           id="ellipse4076"
           ry="1.5890301"
           rx="5.9225545"
           cy="814.73828"
           cx="543.94012"
           style="fill:#ffffff" />
        <path
           id="path4078"
           d="m 612.91979,805.69105 -126.11645,-0.0641 -1.09139,20.21101 128.81823,0.0619 -1.61039,-20.20888 z M 510.0365,818.34776 c -6.97337,0 -12.62681,-1.51854 -12.62681,-3.39591 0,-1.87309 5.65344,-3.39164 12.62681,-3.39164 6.9755,0 12.62894,1.51855 12.62894,3.39164 0,1.87737 -5.65344,3.39591 -12.62894,3.39591 z m 33.90358,0 c -6.9755,0 -12.62895,-1.51854 -12.62895,-3.39591 0,-1.87309 5.65345,-3.39164 12.62895,-3.39164 6.97336,0 12.62895,1.51855 12.62895,3.39164 0,1.87737 -5.65559,3.39591 -12.62895,3.39591 z m 22.4899,1.5634 -2.43267,0 0,-11.0271 2.43267,0 0,11.0271 z m 6.75338,0 -2.4348,0 0,-11.0271 2.4348,0 0,11.0271 z m 7.29587,0 -2.4284,0 0,-11.0271 2.4284,0 0,11.0271 z m 7.0289,0 -2.43481,0 0,-11.0271 2.43481,0 0,11.0271 z m 6.75978,0 -2.4348,0 0,-11.0271 2.4348,0 0,11.0271 z m 6.34758,0 -2.43267,0 0,-11.0271 2.43267,0 0,11.0271 z"
           inkscape:connector-curvature="0"
           style="fill:#ffffff" />
        <polygon
           id="polygon4080"
           points="60.316,43.181 0.002,43.181 0.509,54.721 59.556,54.721 "
           style="fill:#ffffff"
           transform="matrix(2.1357932,0,0,2.1357932,485.71195,734.83825)" />
        <rect
           id="rect4082"
           height="2.5672235"
           width="1.5270921"
           y="810.3855"
           x="564.43304"
           style="fill:#ffffff" />
        <rect
           id="rect4084"
           height="2.5672235"
           width="1.518549"
           y="815.44946"
           x="571.21844"
           style="fill:#ffffff" />
        <rect
           id="rect4086"
           height="2.5693591"
           width="1.5270921"
           y="809.71057"
           x="578.48657"
           style="fill:#ffffff" />
        <rect
           id="rect4088"
           height="2.5650876"
           width="1.5270921"
           y="812.8844"
           x="585.53253"
           style="fill:#ffffff" />
        <rect
           id="rect4090"
           height="2.5693591"
           width="1.5270921"
           y="809.71057"
           x="592.20264"
           style="fill:#ffffff" />
        <rect
           id="rect4092"
           height="2.5650876"
           width="1.5270921"
           y="809.37103"
           x="598.55017"
           style="fill:#ffffff" />
        <path
           id="path4094"
           d="m 575.3431,766.37036 0,0.0876 c 0,1.19177 0.96965,2.15929 2.16356,2.15929 1.16401,0 2.1059,-0.92267 2.15502,-2.07172 1.67232,3.33611 5.3523,5.38006 9.24371,4.79912 2.97089,-0.43997 5.37366,-2.31092 6.62523,-4.80553 0.0448,1.15333 0.99315,2.07813 2.16142,2.07813 1.19818,0 2.16143,-0.96752 2.16143,-2.15929 l 0,-0.0876 c 0.77956,0 1.41176,-0.63006 1.41176,-1.41176 l 0,-5.64917 c 0,-0.77743 -0.6322,-1.4139 -1.41176,-1.4139 l 0,-0.0854 c 0,-0.81801 -0.46347,-1.52068 -1.12557,-1.88804 -1.54417,-4.67525 -5.93537,-8.06262 -11.12107,-8.06262 -5.18144,0 -9.58117,3.38737 -11.12321,8.06262 -0.66851,0.36736 -1.13197,1.07003 -1.13197,1.88804 l 0,0.0854 c -0.77743,0 -1.41176,0.63433 -1.41176,1.4139 l 0,5.64917 c -0.009,0.77957 0.62365,1.41176 1.40321,1.41176 z m 12.25305,-16.3495 c 4.01743,0 7.45392,2.49461 8.86354,6.01013 -0.56812,0.39085 -0.93548,1.04013 -0.93548,1.77698 l 0,0.7518 c -1.68086,-3.32757 -5.34802,-5.36512 -9.23517,-4.78632 -2.96661,0.44211 -5.36511,2.30239 -6.62095,4.78845 l 0,-0.75393 c 0,-0.73685 -0.37377,-1.38613 -0.93548,-1.77698 1.40749,-3.51552 4.85038,-6.01013 8.86354,-6.01013 z"
           inkscape:connector-curvature="0"
           style="fill:#ffffff" />
        <path
           style="fill:#ffffff"
           inkscape:connector-curvature="0"
           d="m 523.31939,783.84208 c -0.21998,0.28406 -0.45492,0.52113 -0.69627,0.73899 -0.23493,6.82172 0.41221,17.50069 0.71977,20.8133 l -19.10681,-0.12174 c -0.0342,-0.35027 -0.56385,-6.06992 -0.76675,-12.62681 -1.20886,1.04654 -2.4284,2.08881 -3.62871,3.1503 -4.03025,3.55396 -9.08994,0.006 -8.40435,-4.89097 0.61724,-4.40187 0.76888,-8.87209 1.96279,-13.17571 1.58903,-5.72606 9.8631,-3.95335 9.87591,1.21527 0.11106,-0.11961 0.22212,-0.2264 0.32891,-0.34814 0.21572,-0.24134 0.43357,-0.43143 0.65783,-0.61724 1.51427,-3.82307 5.38433,-6.37534 9.69863,-6.02721 1.61894,0.13028 3.10972,0.6621 4.39119,1.48011 4.09859,-6.29205 7.10365,-13.09455 9.21809,-20.40965 1.80261,-6.2237 11.18729,-2.61207 9.39535,3.57959 -2.85128,9.86523 -7.36421,19.09613 -13.64558,27.23991 z"
           id="path4077" />
        <path
           style="fill:#ffffff"
           inkscape:connector-curvature="0"
           d="m 499.27168,766.37036 0,0.0876 c 0,1.19177 0.96965,2.15929 2.16355,2.15929 1.16401,0 2.1059,-0.92267 2.15502,-2.07172 1.67233,3.33611 5.3523,5.38006 9.24371,4.79912 2.97089,-0.43997 5.37366,-2.31092 6.62523,-4.80553 0.0448,1.15333 0.99315,2.07813 2.16143,2.07813 1.19818,0 2.16142,-0.96752 2.16142,-2.15929 l 0,-0.0876 c 0.77956,0 1.41176,-0.63006 1.41176,-1.41176 l 0,-5.64917 c 0,-0.77743 -0.6322,-1.4139 -1.41176,-1.4139 l 0,-0.0854 c 0,-0.81801 -0.46347,-1.52068 -1.12556,-1.88804 -1.54418,-4.67525 -5.93537,-8.06262 -11.12108,-8.06262 -5.18143,0 -9.58117,3.38737 -11.12321,8.06262 -0.6685,0.36736 -1.13197,1.07003 -1.13197,1.88804 l 0,0.0854 c -0.77743,0 -1.41176,0.63433 -1.41176,1.4139 l 0,5.64917 c -0.009,0.77957 0.62365,1.41176 1.40322,1.41176 z m 12.25304,-16.3495 c 4.01743,0 7.45392,2.49461 8.86354,6.01013 -0.56812,0.39085 -0.93547,1.04013 -0.93547,1.77698 l 0,0.7518 c -1.68087,-3.32757 -5.34803,-5.36512 -9.23517,-4.78632 -2.96662,0.44211 -5.36512,2.30239 -6.62096,4.78845 l 0,-0.75393 c 0,-0.73685 -0.37377,-1.38613 -0.93548,-1.77698 1.40749,-3.51552 4.85039,-6.01013 8.86354,-6.01013 z"
           id="path4079" />
      </g>
      <path
         style="fill:#ffffff;fill-opacity:0"
         d="m 382.78865,351.55144 -8.7728,-0.50315 -0.91097,-18.86445 c -0.50103,-10.37545 -1.27455,-22.53885 -1.71893,-27.02978 l -0.80796,-8.16532 -10.00471,8.61078 c -5.5026,4.73594 -11.59102,9.21392 -13.52985,9.95104 -13.78597,5.24143 -27.61713,-5.55384 -27.62262,-21.55954 -0.003,-9.1363 3.86132,-40.00004 6.6767,-53.32391 2.82673,-13.37761 7.97443,-20.05464 16.72716,-21.69667 10.82951,-2.03162 23.77117,5.46346 25.86071,14.97708 1.15368,5.25269 4.16932,4.45121 7.18811,-1.91041 5.89831,-12.42976 18.45491,-21.25803 32.83302,-23.08416 5.38116,-0.68345 9.26055,-0.16608 15.71428,2.09572 4.71308,1.65175 9.1283,3.15981 9.8116,3.35124 1.15028,0.32225 13.62995,-18.44253 13.71822,-20.62711 0.0217,-0.53633 -1.21342,-1.37279 -2.74466,-1.85879 -1.53124,-0.48599 -3.1817,-2.13645 -3.6677,-3.66769 -1.23252,-3.88332 -2.29576,-3.45369 -6.50205,2.62729 -4.7353,6.84576 -16.38737,13.15107 -26.16841,14.16056 -11.50183,1.18709 -21.20594,-2.57089 -30.41252,-11.77747 l -7.48335,-7.48335 -2.23817,3.41588 c -3.91412,5.9737 -15.02945,4.06256 -15.02945,-2.58412 0,-1.41429 -0.59694,-2.57143 -1.32653,-2.57143 -0.72959,0 -2.33673,-1.01021 -3.57143,-2.2449 -1.72335,-1.72336 -2.2449,-5.37415 -2.2449,-15.71429 0,-12.07133 0.33363,-13.80026 3.21429,-16.65721 3.63893,-3.60898 4.48144,-4.88776 10.08937,-15.31405 14.15046,-26.30854 42.54025,-36.39481 67.89403,-24.12126 11.30236,5.47138 17.84434,13.2098 28.80231,34.06985 1.17858,2.24358 3.26786,4.38285 4.64286,4.75395 1.73539,0.46835 2.51329,2.13562 2.54344,5.45131 0.0591,6.4983 1.3348,3.94798 7.78708,-15.56756 6.1088,-18.47665 8.77798,-22.52447 16.34865,-24.7927 6.60603,-1.97922 13.66012,-0.0682 20.26582,5.4901 8.89068,7.48102 9.33505,16.15149 1.92475,37.55536 -13.07621,37.76931 -30.52777,71.12686 -51.79324,98.99957 l -6.36051,8.33674 1.0519,30.23469 c 0.57854,16.62907 1.47258,36.50254 1.98676,44.16326 l 0.93486,13.92857 -32.16618,-0.27526 c -17.6914,-0.15139 -36.11394,-0.50167 -40.93898,-0.77841 z m 11.68091,-219.7369 c 10.53907,-3.06379 19.81921,-2.0495 29.54653,3.22934 4.0436,2.19439 9.00265,6.37612 11.02011,9.29273 4.14885,5.99793 5.81096,6.72297 5.81096,2.53483 0,-1.58209 0.77272,-4.11385 1.71715,-5.62613 2.19513,-3.51495 -0.22752,-8.47494 -7.93263,-16.24085 -8.30397,-8.36948 -16.67914,-11.65638 -29.49881,-11.57702 -8.67014,0.0537 -12.07704,0.77487 -17.85714,3.78015 -7.80544,4.05832 -15.04834,10.91427 -18.40112,17.41802 -1.87424,3.63569 -1.88525,4.53602 -0.0869,7.10358 1.13266,1.61712 2.0594,4.04097 2.0594,5.38633 0,1.66047 2.4633,-0.0172 7.66953,-5.22342 6.00653,-6.00653 9.46561,-8.19166 15.95287,-10.07756 z"
         id="path3397"
         inkscape:connector-curvature="0"
         transform="translate(-14.142136,407.3114)" />
    </g>
  </g>
</svg>
