<?xml version="1.0" encoding="UTF-8" standalone="no"?>
<!-- Created with Inkscape (http://www.inkscape.org/) -->

<svg
   xmlns:dc="http://purl.org/dc/elements/1.1/"
   xmlns:cc="http://creativecommons.org/ns#"
   xmlns:rdf="http://www.w3.org/1999/02/22-rdf-syntax-ns#"
   xmlns:svg="http://www.w3.org/2000/svg"
   xmlns="http://www.w3.org/2000/svg"
   xmlns:sodipodi="http://sodipodi.sourceforge.net/DTD/sodipodi-0.dtd"
   xmlns:inkscape="http://www.inkscape.org/namespaces/inkscape"
   width="13.362667mm"
   height="13.095782mm"
   viewBox="0 0 13.362667 13.095782"
   version="1.1"
   id="svg920"
   inkscape:version="0.92.4 (5da689c313, 2019-01-14)"
   sodipodi:docname="Wzk2.svg">
  <defs
     id="defs914" />
  <sodipodi:namedview
     id="base"
     pagecolor="#7d7dff"
     bordercolor="#666666"
     borderopacity="1.0"
     inkscape:pageopacity="0"
     inkscape:pageshadow="2"
     inkscape:zoom="2.8"
     inkscape:cx="67.120608"
     inkscape:cy="41.657949"
     inkscape:document-units="mm"
     inkscape:current-layer="layer1"
     showgrid="false"
     inkscape:window-width="499"
     inkscape:window-height="468"
     inkscape:window-x="1002"
     inkscape:window-y="142"
     inkscape:window-maximized="0"
     fit-margin-top="0"
     fit-margin-left="0"
     fit-margin-right="0"
     fit-margin-bottom="0" />
  <metadata
     id="metadata917">
    <rdf:RDF>
      <cc:Work
         rdf:about="">
        <dc:format>image/svg+xml</dc:format>
        <dc:type
           rdf:resource="http://purl.org/dc/dcmitype/StillImage" />
        <dc:title></dc:title>
      </cc:Work>
    </rdf:RDF>
  </metadata>
  <g
     inkscape:label="Layer 1"
     inkscape:groupmode="layer"
     id="layer1"
     transform="translate(-50.514346,-63.27301)">
    <path
       style="fill:#ffffff;stroke:#ffffff;stroke-width:0.1984375;stroke-miterlimit:4;stroke-dasharray:none;stroke-opacity:1"
       d="m 56.537042,76.238529 c -2.480101,-0.267636 -4.519931,-1.778759 -5.462144,-4.046399 -0.78314,-1.884807 -0.55563,-4.163796 0.587712,-5.887087 0.970433,-1.46268 2.515777,-2.491509 4.260746,-2.836637 0.634529,-0.1255 1.919912,-0.125799 2.545435,-5.29e-4 2.869001,0.574275 5.018214,2.904617 5.28071,5.725754 0.275389,2.959708 -1.478412,5.673983 -4.31928,6.68475 -0.903701,0.32153 -1.993871,0.457261 -2.893179,0.360212 z m 1.976765,-0.290332 c 3.212198,-0.683493 5.41905,-3.663614 5.043551,-6.810785 -0.331121,-2.775205 -2.341615,-4.908639 -5.186466,-5.503599 -0.49785,-0.104119 -1.838687,-0.103217 -2.349637,0.0016 -1.329682,0.272719 -2.481546,0.882714 -3.396314,1.798585 -2.42997,2.432893 -2.42997,6.31887 0,8.751764 1.065909,1.067194 2.287204,1.644772 3.983726,1.883995 0.337508,0.04759 1.44118,-0.02281 1.90514,-0.121539 z m -2.525186,-0.463505 c -1.088818,-0.233487 -2.073648,-0.746416 -2.851145,-1.484958 -0.604951,-0.574649 -0.988803,-1.103201 -1.320157,-1.81782 -0.397375,-0.856996 -0.492739,-1.31609 -0.492739,-2.372056 0,-1.05596 0.09536,-1.515054 0.492739,-2.372053 0.975739,-2.104349 3.02948,-3.40413 5.378755,-3.40413 1.568796,0 2.9631,0.545695 4.062399,1.589926 0.601271,0.571146 0.985546,1.100754 1.316355,1.814204 0.397372,0.856999 0.492739,1.316093 0.492739,2.372053 0,1.055966 -0.09537,1.51506 -0.492739,2.372056 -0.788998,1.701612 -2.333665,2.91991 -4.184867,3.300658 -0.616432,0.126786 -1.815047,0.127844 -2.40134,0.0021 z m 2.40134,-0.06705 c 1.128453,-0.231328 2.149673,-0.78862 2.981706,-1.627156 1.946026,-1.961234 2.1956,-4.995891 0.595305,-7.238503 -0.398907,-0.559013 -1.178783,-1.278968 -1.744914,-1.610843 -1.088147,-0.637886 -2.478426,-0.934146 -3.688594,-0.786016 -1.275696,0.156152 -2.413217,0.677227 -3.313199,1.517716 -1.687296,1.575745 -2.267191,3.820061 -1.543498,5.973658 0.624219,1.857578 2.317504,3.347862 4.27922,3.766206 0.6159,0.131342 1.805596,0.13376 2.433974,0.0049 z m -0.769646,-0.917481 c -1.088986,-0.158999 -1.827496,-0.542303 -1.827496,-0.94851 0,-0.102399 0.02204,-0.112247 0.126246,-0.05647 0.202975,0.10863 0.266327,0.08119 0.366593,-0.158777 0.11216,-0.268437 0.123161,-0.781705 0.02291,-1.06927 -0.03941,-0.113049 -0.07679,-0.205542 -0.08308,-0.205542 -0.0063,0 -0.300881,0.07343 -0.654658,0.163169 -0.966896,0.245274 -1.27671,0.22239 -1.446983,-0.106879 -0.107185,-0.207274 -0.05385,-0.524703 0.141068,-0.839501 0.0706,-0.114025 0.08822,-0.123854 0.05851,-0.03263 -0.02339,0.0718 -0.05887,0.284522 -0.07886,0.472726 -0.03618,0.340637 -0.03532,0.342617 0.189016,0.436351 0.165314,0.06907 0.295108,0.07849 0.487135,0.03534 0.259421,-0.05829 1.328967,-0.448845 1.328967,-0.485289 0,-0.0104 -0.04405,-0.124388 -0.0979,-0.253261 -0.15198,-0.363728 -0.114401,-0.431261 0.06936,-0.124656 0.262861,0.438581 0.639207,0.45393 1.415473,0.05773 0.242305,-0.123669 0.440558,-0.215387 0.440558,-0.203814 0,0.01156 -0.144166,0.109746 -0.320366,0.218165 -0.318283,0.195842 -0.319992,0.198733 -0.263871,0.446153 0.03107,0.13697 0.09578,0.361789 0.143809,0.499597 l 0.08732,0.250563 0.430599,-0.456454 c 0.573743,-0.6082 1.199724,-1.569601 1.36013,-2.088928 0.224377,-0.726453 0.142203,-1.300591 -0.198057,-1.383789 -0.112643,-0.02755 -0.0222,-0.05441 0.294228,-0.08738 0.25128,-0.02619 0.629002,-0.09197 0.839385,-0.146193 0.210378,-0.05422 0.394745,-0.08634 0.409699,-0.07139 0.03522,0.03522 -0.696563,0.240885 -0.861758,0.242192 -0.254482,0.0019 -0.29114,0.08025 -0.183714,0.392049 0.07382,0.214249 0.08839,0.40853 0.05533,0.737706 -0.07252,0.722135 -0.503983,1.458153 -1.55063,2.645167 l -0.423153,0.479906 0.03424,0.670985 c 0.0334,0.654479 -0.0029,1.021596 -0.09919,1.003652 -0.02625,-0.0049 -0.121134,-0.01961 -0.210876,-0.03271 z m 1.798558,-0.821401 c -0.247005,-0.352648 0.04828,-0.899223 0.485806,-0.899223 0.273582,0 0.590056,0.308485 0.580729,0.56607 -0.0063,0.173646 -0.0098,0.171156 -0.06004,-0.04236 -0.02935,-0.124774 -0.117705,-0.278968 -0.196352,-0.342653 -0.461111,-0.373386 -1.086853,0.229925 -0.744874,0.718166 0.05588,0.07978 0.08692,0.145057 0.06897,0.145057 -0.01796,0 -0.07836,-0.06527 -0.134236,-0.145057 z m 0.883965,0.03381 c 0.04752,-0.07914 0.100457,-0.129836 0.117628,-0.112665 0.01717,0.01717 -0.02172,0.08192 -0.08641,0.143883 -0.112384,0.107649 -0.113776,0.106257 -0.03122,-0.03122 z m -0.398159,-0.306008 c 0,-0.0141 0.04558,-0.04314 0.101291,-0.06452 0.05808,-0.0223 0.08428,-0.01135 0.06142,0.02567 -0.03833,0.06202 -0.162708,0.09173 -0.162708,0.03887 z m -5.019153,-2.885379 c -0.297704,-0.378471 -0.230521,-1.050089 0.123346,-1.233083 0.194177,-0.100415 0.800571,-0.130855 1.162941,-0.05838 l 0.199507,0.0399 -0.272934,0.207602 c -0.315309,0.23984 -0.396893,0.547783 -0.202139,0.762982 0.09863,0.108979 0.214673,0.125362 0.934654,0.131934 0.615693,0.0056 0.75651,0.02106 0.560978,0.06151 -0.143592,0.0297 -0.569461,0.05604 -0.946383,0.05853 -0.383524,0.0027 -0.843389,0.04697 -1.044282,0.100889 -0.197434,0.05299 -0.364183,0.0967 -0.370551,0.09713 -0.0063,5.29e-4 -0.07168,-0.07563 -0.145137,-0.169016 z m 2.805493,-0.175506 c 0.01495,-0.01042 0.144677,-0.100656 0.288266,-0.200509 l 0.26107,-0.181558 -0.22597,0.200512 c -0.124283,0.110281 -0.254003,0.200512 -0.288264,0.200512 -0.03426,0 -0.05006,-0.0085 -0.0351,-0.01897 z m -0.427924,-0.996776 c -0.252883,-0.131863 -0.249925,-0.126722 -0.130183,-0.226097 0.08525,-0.07075 0.09969,-0.07058 0.08316,0.0011 -0.01101,0.04764 0.06173,0.133387 0.161624,0.190535 0.172844,0.09889 0.197286,0.09523 0.505822,-0.07556 0.398521,-0.22061 0.432036,-0.182936 0.04108,0.04618 -0.329908,0.19334 -0.40028,0.20014 -0.661503,0.06393 z m 0.289224,-0.567004 c 0.160036,-0.170514 0.299543,-0.310021 0.31002,-0.310021 0.04901,0 -0.0028,0.0586 -0.290978,0.329063 l -0.31002,0.290978 z m -2.665849,-0.05278 c -0.729744,-0.259091 -1.024178,-0.649396 -0.971261,-1.287518 0.03552,-0.428346 0.197786,-0.611867 0.743577,-0.840991 0.78128,-0.327985 0.903369,-0.31224 1.362469,0.175686 0.235426,0.250204 0.245044,0.27291 0.0979,0.231106 -0.08974,-0.02551 -0.295336,-0.06176 -0.456872,-0.08057 -0.366588,-0.0427 -0.594559,0.114676 -0.706284,0.487585 -0.166238,0.554846 -0.03382,1.014269 0.37179,1.289882 0.218694,0.148609 0.223493,0.158869 0.07226,0.154416 -0.0891,-0.0026 -0.320214,-0.06094 -0.51358,-0.129592 z m 2.994914,-0.347152 c 0,-0.01355 0.0514,-0.06495 0.114218,-0.114218 0.103518,-0.08118 0.105826,-0.07888 0.02463,0.02463 -0.08526,0.10872 -0.138861,0.143293 -0.138861,0.08958 z m -1.241385,-0.205362 c -0.171588,-0.206751 0.07304,-1.407508 0.317537,-1.558614 0.03848,-0.02379 0.0093,0.09392 -0.06487,0.261564 -0.169116,0.382315 -0.236577,1.028617 -0.121798,1.166915 0.05029,0.06059 0.191685,0.09907 0.364077,0.09907 0.155025,0 0.300014,0.02937 0.322202,0.06527 0.07015,0.113511 -0.722075,0.08035 -0.817147,-0.0342 z m 4.52424,-0.34613 -0.07457,-0.239713 0.12545,0.154083 c 0.135069,0.165894 0.154945,0.244226 0.07457,0.293896 -0.02798,0.0173 -0.08443,-0.07643 -0.125452,-0.208266 z m -3.05775,-0.01474 c -0.200594,-0.209375 -0.199369,-0.228383 0.03715,-0.577438 0.317264,-0.468215 0.195657,-0.731415 -0.169312,-0.366446 l -0.16219,0.162187 -0.06328,-0.166438 c -0.03481,-0.09154 -0.06328,-0.326065 -0.06328,-0.521161 v -0.354721 l -0.277389,-0.0021 -0.277387,-0.0021 0.15334,-0.127759 c 0.18801,-0.156652 0.733681,-0.324768 1.05411,-0.324768 0.435941,0 0.899808,0.184642 1.209617,0.481489 0.259937,0.249065 0.291388,0.310626 0.290142,0.56792 -0.0013,0.229764 -0.06097,0.380539 -0.293706,0.739814 -0.160769,0.248186 -0.292306,0.506393 -0.292306,0.573798 0,0.110744 -0.04749,0.12073 -0.492835,0.10363 -0.430096,-0.01651 -0.513188,-0.04016 -0.652679,-0.185762 z"
       id="path1494"
       inkscape:connector-curvature="0" />
  </g>
</svg>
